<?xml version="1.0" encoding="utf-8"?>
<!-- Generator: Adobe Illustrator 18.1.1, SVG Export Plug-In . SVG Version: 6.00 Build 0)  -->
<svg version="1.1" id="Layer_1" xmlns="http://www.w3.org/2000/svg" xmlns:xlink="http://www.w3.org/1999/xlink" x="0px" y="0px"
	 viewBox="0 0 475 602" enable-background="new 0 0 475 602" xml:space="preserve">
<g>
	<path fill="#3D1A51" d="M0,11.7C0,2.1,2,0,11.5,0c75.1,0,230.1,0,305.2,0c8.7,0,10.8,2.1,10.8,10.8c0,16.3,0,22.5,0,39.6
		c5.4,0,10.5,0,15.7,0c2.2,0,4.3,0,6.5,0c5.1,0.1,6.6,1.5,6.7,6.6c0.1,5.5,0,11,0,16.9c2.2,0,3.9,0,5.5,0c30.1,0,60.3,0,90.4,0
		C466,74,475,82.7,475,96.3c0,81.5,0,163.1,0,244.6c0,9.7-2.7,18.7-8.2,26.8c-22.8,33.8-45.7,67.6-68.6,101.3
		c-6.8,10-16.4,14.9-28.5,14.9c-9.5,0-19,0-29.3,0c0,5.2,0,10.2,0,15.2c0,7.3-0.8,8.1-8.2,8.3c-1.4,0-2.7,0.2-4.7,0.3
		c0,1.8,0,3.4,0,5.1c0,26.1,0,52.2,0,78.3c0,2,0.1,4.1-0.5,5.9c-1.3,3.8-4.4,5.4-8.4,4.9c-4.3-0.6-6.5-3.4-6.8-7.5
		c-0.3-4.1-0.1-8.3-0.1-12.4c0-23,0-46.1,0-69.1c0-1.7,0-3.3,0-5.5c-2.4,0-4.3,0.1-6.3,0c-5.1-0.2-6.6-1.8-6.6-6.7
		c0-5.4,0-10.7,0-16.8c-6,0-11.8-0.3-17.5,0.1c-15.1,0.8-26.3-5.2-35.2-17.5c-23.8-32.8-48.2-65.1-72.3-97.7
		c-6.4-8.7-9.8-18.4-9.7-29.5c0.1-80.6,0.1-161.2,0.1-241.8c0-16.8,12.2-23.8,24-23.6c29.7,0.5,59.4,0.2,89.1,0.2c1.7,0,3.4,0,5.8,0
		c0-5.5,0-10.8,0-16.1c0.1-6.1,1.2-7.3,7.3-7.4c7,0,14.1,0,21.3,0c0-15.1,0-19.7,0-34.5c-71.7,0-223.3,0-295.3,0 M191.9,357.7
		c0.9,1.4,1.3,2,1.8,2.6c23.7,31.9,47.4,63.8,70.9,95.8c3.5,4.8,7.7,6.7,13.7,6.8c10.5,0.1,20.9-1.9,31.3-2.1
		c19.3-0.4,38.7,1.2,58,2c0.9,0,1.8,0,2.8,0c4.6,0.2,7.9-1.8,10.4-5.6c22.7-33.5,45.6-66.9,67.9-100.7c3-4.6,4.9-10.8,4.9-16.3
		c0.4-48.5,0.2-97,0.2-145.5c0-1.5,0-3,0-4.8c-89.6,0-178.8,0-268.1,0c0,14,0,27.8,0,41.7c2,0,3.7,0,5.4,0c22.3,0,44.6,0,66.9,0
		c7.1,0,11.7,4.4,11.5,10.9c-0.2,6.2-4.7,10.1-11.8,10.1c-22.3,0-44.6,0-66.9,0c-1.6,0-3.3,0-5.1,0c0,10.7,0,20.9,0,31.5
		c2,0,3.6,0,5.3,0c22.3,0,44.6,0,66.9,0c7.4,0,12,4.6,11.6,11.2c-0.4,6-4.7,9.8-11.7,9.8c-22.5,0-44.9,0-67.4,0
		c-1.6,0-3.2,0.1-4.8,0.2c0,10.6,0,20.7,0,31.3c1.9,0,3.6,0,5.2,0c17.4,0,34.8,0,52.1,0c5.2,0,10.5-0.1,15.7,0
		c5.9,0.2,9.9,3.7,10.7,8.9c1,7-3.7,12.1-11.4,12.1C236.2,357.7,214.5,357.7,191.9,357.7z"/>
</g>
</svg>
