<?xml version="1.0" encoding="utf-8"?>
<!-- Generator: Adobe Illustrator 18.1.1, SVG Export Plug-In . SVG Version: 6.00 Build 0)  -->
<svg version="1.1" xmlns="http://www.w3.org/2000/svg" xmlns:xlink="http://www.w3.org/1999/xlink" x="0px" y="0px"
	 viewBox="0 0 32 32" enable-background="new 0 0 32 32" xml:space="preserve">
<g id="clipboard">
	<g>
		<path fill="#3E1151" d="M171.9,4.2c-0.4,0-0.7-0.3-0.7-0.7s0.3-0.7,0.7-0.7s0.7,0.3,0.7,0.7S172.3,4.2,171.9,4.2 M176.4,4.5
			c0-0.2-0.1-0.3-0.4-0.4c-0.2,0-0.4,0-0.6,0c-0.7,0-1.2-0.3-1.6-0.8c-0.2-0.2-0.3-0.5-0.5-0.7c-0.2-0.4-0.5-0.6-1-0.6
			c-0.3,0-0.5,0-0.8,0c-0.6,0-1,0.3-1.3,0.8c0,0.1-0.1,0.2-0.1,0.3c-0.3,0.6-0.8,1-1.5,1.1c-0.3,0-0.6,0-1,0.1
			c-0.3,0-0.4,0.1-0.4,0.4c0,0.5,0,1,0,1.5c0,0.3,0.1,0.4,0.4,0.4c0.1,0,0.1,0,0.2,0c1.3,0,2.6,0,4,0c1.3,0,2.7,0,4,0
			c0.1,0,0.1,0,0.2,0c0.3,0,0.4-0.1,0.4-0.4C176.5,5.6,176.5,5,176.4,4.5"/>
		<path fill="#3E1151" d="M168.4,12.5L168.4,12.5c0,0.1,0,0.1,0,0.2v0c0,0.1-0.1,0.1-0.2,0.1c-0.2,0-0.2-0.1-0.2-0.3
			c0,0,0-0.1,0-0.1c0-0.1,0-0.3,0-0.5c0-0.2,0-0.4-0.1-0.5c0,0,0,0-0.1,0c-0.2,0-0.6,0.5-0.7,0.7c-0.1,0.2-0.1,0.4-0.1,0.5v0.1
			c0,0,0,0,0,0c0,0.2-0.1,0.3-0.2,0.3c-0.1,0-0.2-0.1-0.2-0.2c0,0,0-0.1,0-0.1c0-0.1,0-0.1,0-0.2c0-0.5,0-0.9,0.1-1.4
			c0-0.3,0-0.6,0.1-0.7c0-0.2,0.1-0.3,0.2-0.3h0c0.1,0,0.2,0.1,0.2,0.2c0,0,0,0,0,0c0,0.1-0.1,0.3-0.1,0.6c0,0.3,0,0.6-0.1,0.8
			c0.2-0.2,0.6-0.6,0.9-0.6c0,0,0.1,0,0.1,0c0.2,0.1,0.3,0.6,0.3,1C168.4,12.2,168.4,12.4,168.4,12.5"/>
		<path fill="#3E1151" d="M169.3,11.3c0,0.1-0.1,0.8-0.1,1v0.1c0,0.1,0,0.1,0,0.2c0,0,0,0,0,0.1c0,0.1-0.1,0.2-0.2,0.2
			c0,0-0.1,0-0.1-0.1c0,0-0.1-0.2-0.1-0.3v0c0-0.2,0-0.4,0-0.8c0-0.1,0-0.5,0.2-0.5h0C169.2,11,169.3,11.1,169.3,11.3L169.3,11.3z
			 M169.3,10c0,0,0,0.1,0,0.1c-0.1,0.1-0.1,0.2-0.1,0.3c0,0.1-0.1,0.1-0.2,0.1c0,0-0.1,0-0.1,0c0,0,0-0.1,0-0.1
			c0-0.1,0.1-0.3,0.1-0.4c0-0.1,0.1-0.2,0.2-0.2C169.2,9.8,169.3,9.9,169.3,10L169.3,10z"/>
		<path fill="#3E1151" d="M170.1,13.1L170.1,13.1c-0.1,0-0.2-0.1-0.2-0.2c0,0,0-0.1,0-0.1c0-0.1,0.6-0.2,0.6-0.3v0
			c0-0.1-0.9-0.1-0.9-0.7c0,0,0,0,0-0.1c0-0.4,0.4-0.8,0.7-1c0.1,0,0.1-0.1,0.2-0.1c0.2,0,0.3,0.1,0.3,0.2v0c0,0.1,0,0.1-0.1,0.1
			c-0.1,0-0.1,0-0.1,0c-0.1,0-0.3,0.2-0.4,0.3c-0.2,0.1-0.2,0.4-0.2,0.5c0,0,0,0,0,0c0.1,0.4,0.9,0.2,1,0.7v0
			C170.9,12.8,170.3,13.1,170.1,13.1"/>
		<path fill="#3E1151" d="M172.7,11.2L172.7,11.2c-0.1,0-0.1,0-0.2,0c-0.2,0-0.4,0-0.6,0.1c0,0.2-0.1,0.8-0.1,1.1c0,0.1,0,0.2,0,0.3
			c0,0,0,0.1,0,0.1c0,0.1-0.1,0.2-0.1,0.2c-0.1,0-0.2-0.1-0.2-0.3v0c0-0.2,0-0.4,0-0.8c0-0.2,0-0.3,0.1-0.4
			c-0.2,0.1-0.2,0.1-0.4,0.2c0,0-0.1,0-0.1,0c0,0,0,0,0,0c-0.1,0-0.2-0.1-0.2-0.2c0-0.1,0-0.1,0.1-0.1c0.1-0.1,0.5-0.2,0.7-0.3
			c0-0.1,0.1-0.4,0.1-0.7v0c0,0,0-0.1,0-0.1c0-0.1,0-0.2,0.2-0.2c0.1,0,0.2,0.2,0.2,0.4c0,0.3-0.1,0.6-0.1,0.7c0.2,0,0.3,0,0.4,0
			c0.1,0,0.1,0,0.2,0c0.2,0,0.2,0.1,0.2,0.2C172.8,11.1,172.8,11.2,172.7,11.2"/>
		<path fill="#3E1151" d="M173.4,11.6c0-0.1-0.1-0.1-0.2-0.2c-0.1,0-0.4,0.1-0.5,0.6c0,0,0,0.1,0,0.1c0,0.1,0.1,0.3,0.2,0.3
			c0,0,0,0,0,0c0.1,0,0.4-0.2,0.4-0.3c0.1-0.1,0.1-0.3,0.1-0.4C173.5,11.7,173.5,11.6,173.4,11.6 M172.9,12.8c-0.1,0-0.1,0-0.2,0
			c-0.2-0.1-0.3-0.3-0.3-0.6c0-0.1,0-0.2,0.1-0.3c0.2-0.5,0.5-0.7,0.7-0.7h0c0.2,0,0.5,0.1,0.6,0.6c0,0,0,0.1,0,0.1
			C173.8,12.4,173.2,12.8,172.9,12.8"/>
		<path fill="#3E1151" d="M175.6,11.3C175.6,11.3,175.6,11.3,175.6,11.3c-0.1,0-0.1,0-0.2,0c0,0,0,0-0.1,0c-0.2,0.1-0.5,0.5-0.8,0.9
			c-0.1,0.2-0.1,0.5-0.1,0.6c0,0-0.1,0.1-0.1,0.1c-0.1,0-0.1,0-0.2-0.1c0,0,0-0.1,0-0.1c0,0,0-0.1,0-0.1c0-0.2,0.1-0.5,0.1-0.7
			c0-0.2,0-0.4-0.1-0.6c0,0,0,0,0,0c0-0.1,0.1-0.1,0.2-0.1c0,0,0.1,0,0.1,0c0.1,0.1,0.1,0.2,0.1,0.4c0,0.1,0,0.2,0,0.3v0
			c0.1-0.2,0.5-0.6,0.7-0.7c0.1,0,0.2-0.1,0.3-0.1c0.1,0,0.1,0,0.2,0c0,0,0.1,0.1,0.1,0.2C175.7,11.3,175.7,11.3,175.6,11.3"/>
		<path fill="#3E1151" d="M177.1,11.7c0,0.2-0.1,1.1-0.2,1.8c0,0-0.1,0.8-0.1,0.8c0,0,0.1,0.1,0.1,0.2c0,0.1-0.1,0.2-0.2,0.2
			c-0.1,0-0.2-0.1-0.2-0.2v0c0,0,0-0.2,0.1-0.2c0,0,0-0.5,0.1-1.2c0-0.5,0.1-0.8,0.1-1.3c-0.2,0.3-0.6,0.8-0.8,0.8
			c-0.1,0-0.2-0.1-0.2-0.3c0-0.2,0.1-0.6,0.1-0.9c0-0.1,0-0.4,0.2-0.4c0,0,0,0,0,0c0.1,0,0.2,0.1,0.2,0.2v0c0,0.1-0.2,0.8-0.2,0.9
			c0,0,0,0,0,0c0,0,0.5-0.6,0.6-0.7c0.1-0.1,0.1-0.2,0.2-0.2c0,0,0,0,0.1,0c0.1,0,0.1,0.2,0.1,0.4C177.1,11.7,177.1,11.7,177.1,11.7
			"/>
		<path fill="#3E1151" d="M179.7,10.2c0,2.2,0,4.4,0,6.6c0,2.2,0,7.8,0,10.1c0,1.2-0.9,2.1-2.1,2.1c-3.7,0-7.5,0-11.2,0
			c-1.2,0-2.1-0.9-2.1-2.1c0-4.4,0-12.3,0-16.7c0-1.2,0.9-2.1,2.1-2.1c3.7,0,7.5,0,11.2,0C178.8,8.1,179.7,9,179.7,10.2 M176.6,7
			L176.6,7l-9.2,0v0h-1v0c-0.2,0-0.4,0-0.5,0.1c-1.5,0.3-2.6,1.5-2.6,3.1c0,4.4,0,12.3,0,16.7c0,0.1,0,0.3,0,0.4
			c0.2,1.5,1.5,2.7,3.1,2.7c3.8,0,7.5,0,11.3,0c0.2,0,0.4,0,0.6-0.1c1.5-0.3,2.5-1.5,2.5-3.1c0-3.5,0-10.5,0-14.1c0-0.9,0-1.8,0-2.7
			c0-1.1-0.6-2-1.5-2.6c-0.5-0.3-1-0.4-1.5-0.4V7H176.6z"/>
		<path fill="#3E1151" d="M169.8,16.7h-3.4c-0.3,0-0.5-0.2-0.5-0.5c0-0.3,0.2-0.5,0.5-0.5h3.4c0.3,0,0.5,0.2,0.5,0.5
			C170.3,16.5,170.1,16.7,169.8,16.7"/>
		<path fill="#3E1151" d="M169.8,18.8h-3.4c-0.3,0-0.5-0.2-0.5-0.5s0.2-0.5,0.5-0.5h3.4c0.3,0,0.5,0.2,0.5,0.5
			S170.1,18.8,169.8,18.8"/>
		<path fill="#3E1151" d="M169.8,20.9h-3.4c-0.3,0-0.5-0.2-0.5-0.5s0.2-0.5,0.5-0.5h3.4c0.3,0,0.5,0.2,0.5,0.5
			S170.1,20.9,169.8,20.9"/>
		<path fill="#3E1151" d="M169.8,23.1h-3.4c-0.3,0-0.5-0.2-0.5-0.5s0.2-0.5,0.5-0.5h3.4c0.3,0,0.5,0.2,0.5,0.5
			S170.1,23.1,169.8,23.1"/>
		<path fill="#3E1151" d="M177.4,25.2h-10.9c-0.3,0-0.5-0.2-0.5-0.5c0-0.3,0.2-0.5,0.5-0.5h10.9c0.3,0,0.5,0.2,0.5,0.5
			C177.9,25,177.6,25.2,177.4,25.2"/>
		<path fill="#3E1151" d="M177.4,27.3h-10.9c-0.3,0-0.5-0.2-0.5-0.5c0-0.3,0.2-0.5,0.5-0.5h10.9c0.3,0,0.5,0.2,0.5,0.5
			C177.9,27.1,177.6,27.3,177.4,27.3"/>
		<path fill="#3E1151" d="M177.4,22.8H172c-0.2,0-0.3-0.2-0.3-0.3V16c0-0.2,0.2-0.3,0.3-0.3h5.3c0.2,0,0.3,0.2,0.3,0.3v6.5
			C177.7,22.7,177.6,22.8,177.4,22.8"/>
	</g>
</g>
<g id="zoom-in">
	<g>
		<path fill="#3E1151" d="M229.5,22.9c-0.6-0.6-1.1-1.1-1.6-1.6c-3.1,2.4-6.6,3.2-10.4,1.9c-2.6-0.8-4.5-2.4-5.9-4.7
			c-2.8-4.6-1.8-10.6,2.3-14c4.3-3.5,10.3-3.4,14.4,0.3c4,3.6,5,10.2,1,15.2c0.3,0.2,0.6,0.5,0.9,0.7c0.3,0.3,0.5,0.6,0.8,0.9
			c0.2-0.3,0.4-0.5,0.6-0.7c0.4-0.4,0.8-0.4,1.3-0.1c0.1,0.1,0.2,0.2,0.3,0.2c1.5,1.5,3,3,4.6,4.6c0.7,0.7,0.7,1.1,0,1.8
			c-0.7,0.7-1.4,1.5-2.2,2.2c-0.5,0.5-1,0.5-1.5,0c-1.6-1.6-3.2-3.2-4.8-4.8c-0.5-0.5-0.5-1,0-1.6C229.2,23.2,229.4,23,229.5,22.9z
			 M211.8,13.2c0.1,4.9,4.5,9.2,10,8.6c4.7-0.5,8.6-4.7,8-10c-0.5-4.7-4.7-8.6-10-8C215,4.4,211.6,8.6,211.8,13.2z M232.1,23
			c-0.4,0.4-0.8,0.7-1.1,1.1c1.2,1.2,2.4,2.4,3.6,3.6c0.4-0.4,0.7-0.7,1.1-1.1C234.5,25.4,233.3,24.2,232.1,23z"/>
		<path fill="#3E1151" d="M219.9,13.8c-0.2,0-0.4,0-0.6,0c-1.5,0-3.1,0-4.6,0c-0.7,0-1.1-0.4-1.1-0.9c0-0.6,0.4-1,1.1-1
			c1.6,0,3.1,0,4.7,0c0.2,0,0.3,0,0.5,0c0-0.2,0-0.3,0-0.5c0-1.5,0-3.1,0-4.6c0-0.7,0.4-1.1,0.9-1.1c0.6,0,0.9,0.4,0.9,1.1
			c0,1.5,0,3.1,0,4.6c0,0.2,0,0.3,0,0.5c0.2,0,0.4,0,0.5,0c1.6,0,3.1,0,4.7,0c0.5,0,0.8,0.2,1,0.6c0.1,0.4,0.1,0.7-0.2,0.9
			c-0.2,0.2-0.6,0.3-0.9,0.3c-1.5,0-3.1,0-4.6,0c-0.2,0-0.3,0-0.5,0c0,0.2,0,0.3,0,0.5c0,1.6,0,3.1,0,4.7c0,0.5-0.2,0.9-0.7,1
			c-0.6,0.2-1.2-0.3-1.2-1c0-1.5,0-3.1,0-4.6C219.9,14.2,219.9,14,219.9,13.8z"/>
	</g>
</g>
<g id="tiles">
	<g>
		<path fill-rule="evenodd" clip-rule="evenodd" fill="#3E1151" d="M-191.2,3.1h12.6v12h-12.6V3.1z"/>
	</g>
	<g>
		<path fill-rule="evenodd" clip-rule="evenodd" fill="#3E1151" d="M-191.2,16.9h12.6v12h-12.6V16.9z"/>
	</g>
	<g>
		<path fill-rule="evenodd" clip-rule="evenodd" fill="#3E1151" d="M-205.5,16.9h12.6v12h-12.6V16.9z"/>
	</g>
	<g>
		<path fill-rule="evenodd" clip-rule="evenodd" fill="#3E1151" d="M-205.5,3.1h12.6v12h-12.6V3.1z"/>
	</g>
</g>
<g id="chevron-down">
	<g>
		<path fill="#3E1151" d="M-19.7,8.4l-16.1,19.1L-52,8.4H-19.7z"/>
	</g>
</g>
<g id="chevron-up">
	<g>
		<path fill="#3E1151" d="M-0.1,24.6L16,5.4l16.1,19.1H-0.1z"/>
	</g>
</g>
<g id="chevron-right">
	<g>
		<path fill="#3E1151" d="M-97.6,3.4L-78.4,16l-19.1,12.6V3.4z"/>
	</g>
</g>
<g id="chevron-left_copy">
	<g>
		<path fill="#3E1151" d="M-130.4,28.6L-149.6,16l19.1-12.6V28.6z"/>
	</g>
</g>
<g id="heart">
	<path fill="#3E1151" d="M62.3,26.5c-1.1-0.9-2-1.9-2.8-3c0,0.1,0,0.2,0,0.3c-0.1,0.7-0.1,1.4-0.2,2c-0.1,0.5,0,0.6,0.4,0.8
		c0.6,0.3,1.2,0.4,1.8,0.3C61.7,26.9,62,26.8,62.3,26.5 M77.4,17.8c-0.1-0.5-0.2-0.9-0.4-1.3c-0.4-1.1-0.8-2.1-1.5-3
		c-0.3-0.3-0.7-0.7-1-1c-0.1-0.1-0.2-0.2-0.4-0.2c-0.2,0-0.4,0-0.6,0c-0.1,0-0.2,0.1-0.2,0.2c0,0.1-0.1,0.2,0,0.3
		c0.1,0.4,0.1,0.9,0.2,1.3c0.3,0.8,0.7,1.6,1.3,2.2C75.5,17.1,76.4,17.4,77.4,17.8 M71.9,3.7c-0.2-0.1-0.3-0.1-0.5-0.2
		c-0.1,0-0.2,0-0.2,0.1c-0.2,0.5-0.4,1.1-0.6,1.6c-0.2,0.4-0.5,0.6-0.9,0.5c-0.4-0.1-0.8-0.2-1.1-0.2c-0.3-0.1-0.6-0.3-0.6-0.6
		c-0.1-0.5-0.1-1.1-0.1-1.6c0-0.1-0.1-0.2-0.1-0.2c-0.2,0-0.4,0-0.6,0c-0.1,0-0.2,0.1-0.2,0.2c-0.1,0.3-0.1,0.5-0.2,0.8
		c-0.5,1.9-1.3,3.6-2.4,5.2c0,0.1-0.1,0.2-0.1,0.3c0.1,0.6,0.2,1.1,0.3,1.7c0.2,1.1,0.7,2.1,1.2,3.1c0.3-0.1,0.5-0.4,0.7-0.6
		c1-1.2,1.7-2.6,2.2-4.1c0.2-0.7,0.7-1.3,1.5-1.4C70.3,8.1,70.7,8,71.1,8c1.1,0,2.3,0,3.4,0.1c0.1,0,0.2,0,0.2-0.1
		c0.3-0.8,0.6-1.5,0.9-2.2c0.1-0.3,0.1-0.3-0.2-0.5c-0.1,0-0.1-0.1-0.2-0.1C75.2,5,75.1,5,75,5.2c-0.3,0.5-0.6,1-0.9,1.4
		c-0.2,0.3-0.5,0.5-0.9,0.3c-0.4-0.1-0.8-0.3-1.3-0.5c-0.4-0.1-0.5-0.5-0.5-0.9C71.6,5,71.8,4.4,71.9,3.7 M57.9,15.2
		c0,0.4,0,0.8,0.1,1.2c0.2,1.5,0.7,3,1.4,4.4c0.4,0.8,1,1.2,1.9,1.4c1.1,0.2,2.1-0.1,3-0.6c0.7-0.4,1.1-0.9,1.2-1.7
		c0.1-0.6,0.1-1.2,0-1.7c-0.2-1.2-0.7-2.4-1.3-3.5c-0.4-0.9-0.9-1.8-1.1-2.8c-0.5-2.2-0.7-4.3-0.9-6.5c0-0.4-0.2-0.6-0.5-0.9
		c-0.8-0.6-2-0.5-2.7,0.4c-0.1,0.1-0.1,0.2-0.1,0.3c-0.1,0.7-0.2,1.4-0.3,2.1c-0.1,0.9-0.2,1.8-0.3,2.6c-0.1,0.9-0.2,1.7-0.3,2.6
		C58,13.4,58,14.3,57.9,15.2 M61.3,23.6c0.1,0.1,0.1,0.1,0.1,0.1c1.2,1.4,2.6,2.4,4.2,3.2c2,0.9,4,1.6,6.2,1.9c1,0.1,2,0.2,3-0.1
		c1.3-0.3,2.3-1,2.8-2.3c0.3-0.7,0.4-1.5,0.4-2.3c0-0.7,0-1.3-0.1-2c-0.1-0.9-0.2-1.8-0.3-2.7c0-0.1-0.1-0.2-0.2-0.2
		c-0.4-0.1-0.8-0.2-1.1-0.4c-0.9-0.3-1.7-0.7-2.4-1.3c-0.9-0.8-1.4-1.8-1.8-2.8c-0.3-0.7-0.4-1.5-0.3-2.3c0.1-0.8,0.6-1.4,1.4-1.5
		c0.2,0,0.3,0,0.5,0c1.1,0,2.1,0.1,3.2,0.2c0.3,0,0.5-0.1,0.6-0.4c0,0,0-0.1,0-0.1c0.2-0.5,0-0.9-0.5-1c-0.1,0-0.1,0-0.2,0
		c-1.6-0.1-3.2-0.2-4.8-0.3c-0.6,0-1.1,0-1.7,0.1c-0.3,0-0.5,0.2-0.6,0.5c-0.3,1.1-0.8,2.1-1.4,3.1c-0.6,1-1.2,1.9-2.2,2.5
		c0,0,0,0,0,0.1c0,0.1,0.1,0.1,0.1,0.2c0.4,1.1,0.7,2.3,0.7,3.5c0,0.9-0.3,1.7-0.8,2.4c-0.6,0.8-1.5,1.3-2.4,1.6
		C63,23.6,62.2,23.7,61.3,23.6 M63.4,27.4c-0.3,0.3-0.6,0.6-1,0.8c-0.6,0.3-1.2,0.3-1.8,0.2c-0.7-0.1-1.3-0.2-1.9-0.6
		c-0.7-0.5-1.2-1.1-1.1-2c0-0.4,0.1-0.7,0.1-1.1c0.1-0.8,0.2-1.6,0.2-2.3c0-0.2,0-0.4,0-0.5c0.1-0.3,0-0.6-0.2-0.9
		c-0.7-1.4-1.1-2.9-1.4-4.5c-0.1-0.8-0.1-1.5,0-2.3c0.1-0.9,0.1-1.8,0.2-2.8c0.1-0.8,0.2-1.7,0.3-2.5c0.1-0.8,0.2-1.7,0.3-2.5
		c0.1-0.5,0.1-1.1,0.2-1.6c0.1-0.4,0.3-0.7,0.6-0.9c1.3-1.4,3.4-1.4,4.8-0.1c0.3,0.2,0.5,0.6,0.6,0.9c0.1,0.2,0.1,0.6,0.1,0.8
		c0.1,0.6,0.1,1.2,0.2,1.8c0.1-0.2,0.2-0.5,0.4-0.7c0.5-1.1,1-2.2,1.2-3.5c0.1-0.7,0.6-1.1,1.3-1.3c0.6-0.1,1.1-0.1,1.7,0.2
		c0.5,0.3,0.8,0.7,0.8,1.3c0,0.3,0,0.6,0,0.9c0,0.1,0.1,0.1,0.1,0.2c0,0,0.1-0.1,0.1-0.1c0.1-0.3,0.3-0.7,0.4-1
		c0.2-0.8,0.9-1.1,1.6-1c0.6,0,1.2,0.3,1.7,0.7c0.3,0.4,0.4,0.8,0.3,1.3c-0.1,0.4-0.2,0.7-0.3,1.1c0,0.1,0,0.2,0.2,0.2
		c0.2-0.3,0.4-0.6,0.6-1c0.3-0.7,1-0.9,1.7-0.7c0.7,0.2,1.2,0.5,1.5,1.2c0.2,0.4,0.2,0.8,0.1,1.1c-0.3,0.7-0.5,1.4-0.8,2.1
		c0,0.1,0,0.1-0.1,0.2c0.3,0,0.6,0.1,0.9,0.1c0.4,0,0.9,0.1,1.2,0.4c0.8,0.6,1.3,1.8,0.4,3.1c-0.5,0.7-1.1,0.9-1.9,0.8
		c-0.1,0-0.1,0-0.2,0c0,0,0,0.1,0,0.1c0.9,1,1.4,2.2,1.8,3.5c0.4,1.3,0.7,2.7,0.9,4.1c0.2,1.4,0.3,2.7,0.3,4.1c0,1.3-0.3,2.6-1,3.7
		c-0.8,1.3-2,2-3.4,2.3c-1.3,0.3-2.7,0.2-4,0c-2.2-0.4-4.3-1.1-6.2-2C64.4,28,63.9,27.7,63.4,27.4"/>
</g>
<g id="stethoscope">
	<g>
		<path fill="#3E1151" d="M124.6,20.3c3.3-0.1,5.7-0.9,7.5-3.1c0.6-0.7,1.1-1.5,1.4-2.3c0.6-1.9,1.2-3.8,1.7-5.7
			c0.7-2.8-0.8-5.8-3.3-7.2c-0.2-0.1-0.3-0.2-0.4-0.4c-0.6-1-1.7-1.5-2.7-1.2c-1.1,0.3-1.8,1.2-1.8,2.4c0,1.1,0.7,2.1,1.9,2.3
			c0.6,0.1,1.1,0.1,1.6-0.2c0.3-0.2,0.4-0.1,0.6,0.1c1.2,1,1.5,2.4,1.1,3.8c-0.4,1.5-0.8,2.9-1.3,4.4c-0.7,2.3-2.4,3.6-4.7,4
			c-1,0.2-2.1,0.1-3.1-0.2c-1.8-0.5-3.2-1.5-3.8-3.3c-0.6-1.7-1.1-3.5-1.5-5.3c-0.3-1.4,0.1-2.7,1.3-3.6c0.2-0.1,0.3-0.2,0.6,0
			c1.2,0.7,2.6,0.3,3.3-0.9c0.7-1.1,0.3-2.6-0.8-3.3c-1.1-0.7-2.6-0.3-3.3,0.8c-0.1,0.2-0.3,0.3-0.5,0.4c-2.5,1.2-4.1,4-3.5,6.8
			c0.4,1.8,0.9,3.6,1.5,5.4c0.9,3,2.9,5,5.9,5.8C123.1,20.2,124.1,20.3,124.6,20.3"/>
		<path fill="#3E1151" d="M106.2,18.5c0-1.8,1.4-3.3,3.2-3.3c1.7,0,3.2,1.4,3.3,3.2c0,1.8-1.4,3.3-3.2,3.4
			C107.7,21.8,106.3,20.4,106.2,18.5 M126.6,21.7h-2.9c0,0.4-0.1,0.8-0.1,1.2c-0.3,3.1-2.9,5.6-6.1,5.7c-3.2,0.1-6-2.2-6.5-5.3
			c0-0.3,0.1-0.3,0.3-0.4c1.9-0.8,3.1-2.6,3.1-4.6c-0.1-2.5-2-4.5-4.5-4.7c-2.5-0.2-4.7,1.6-5.1,4.1c-0.3,2.2,0.8,4.2,2.9,5.1
			c0.2,0.1,0.3,0.2,0.4,0.5c0.4,4,3.6,7.4,7.6,8c5.2,0.9,9.8-2.3,10.8-7.5c0.1-0.6,0.1-1.2,0.2-1.8C126.6,22,126.6,21.9,126.6,21.7"
			/>
		<path fill="#3E1151" d="M107.6,18.5c0,1,0.9,1.9,1.9,1.8c1,0,1.9-0.9,1.8-1.9c0-1-0.9-1.8-1.9-1.8
			C108.4,16.7,107.6,17.5,107.6,18.5"/>
	</g>
</g>
<g id="users">
	<g>
		<path fill="#3E1151" d="M-252.3,18c0.6,0.4,1.2,0.9,1.8,1.3c0.7-1.7,2-3,3.8-3.8c-1.5-1.2-2.2-2.7-2-4.5c0.1-1.3,0.7-2.3,1.7-3.1
			c1.9-1.6,4.7-1.4,6.5,0.3c0.7,0.7,1.1,1.5,1.3,2.4c0.2,0.9,0.1,1.8-0.3,2.7c-0.3,0.9-0.9,1.6-1.7,2.2c1.8,0.8,3,2.1,3.8,3.8
			c0.6-0.4,1.2-0.9,1.8-1.3c-2.1-1.7-1.6-4.2-0.4-5.4c1.4-1.4,3.6-1.4,5,0c1.2,1.2,1.7,3.6-0.4,5.4c0.4,0.3,0.8,0.5,1.2,0.8
			c1.3,1.1,1.9,2.5,1.9,4.2c0,0.5,0,1,0,1.4c0,0.6-0.3,0.8-0.9,0.8c-9.8,0-19.6,0-29.4,0c-0.5,0-0.8-0.2-0.8-0.7c0-1,0-2.1,0.2-3.1
			c0.3-1.6,1.4-2.8,3-3.5c-1.1-0.9-1.7-2-1.5-3.5c0.1-0.9,0.6-1.7,1.4-2.3c1.5-1.1,3.6-0.9,4.8,0.5C-250.7,14-250.3,16.2-252.3,18z"
			/>
	</g>
</g>
<g id="nurse">
	<g>
		<path fill="#3E1151" d="M-281.2,6.3c-1.7-1.6-3.7-2.7-5.9-3.4c-3.8-1.3-7.7-1.7-11.6-1.3c-2.8,0.3-5.6,1-8.2,2.2
			c-1.5,0.7-2.9,1.6-4.1,2.7c1.2,2.8,2.5,5.6,3.6,8.4c0.4,0.9,0.9,1.3,1.8,1.5c0,0,0,0,0,0c1.7,0.4,3.4,0.2,5.1-0.1
			c2.3-0.5,4.7-1.1,7-1.5c2.1-0.4,4.1-0.3,6.2,0.4c0.7,0.2,1.4,0.5,2.1,0.8c1.4-3.1,2.8-6.3,4.3-9.4C-281.1,6.4-281.1,6.4-281.2,6.3
			z M-297.2,12.3c0-0.8,0-1.6,0-2.5c-0.8,0-1.7,0-2.5,0c0-0.9,0-1.7,0-2.6c0.8,0,1.6,0,2.5,0c0-0.9,0-1.7,0-2.5c0.9,0,1.7,0,2.6,0
			c0,0.8,0,1.6,0,2.5c0.8,0,1.6,0,2.5,0c0,0.9,0,1.7,0,2.6c-0.8,0-1.6,0-2.5,0c0,0.8,0,1.6,0,2.5C-295.4,12.3-296.3,12.3-297.2,12.3
			z"/>
		<g>
			<path fill="#3E1151" d="M-287.5,16.5c-1.9-0.6-3.9-0.7-5.9-0.4c-1.5,0.3-3,0.6-4.5,0.9c-0.8,0.2-1.7,0.4-2.5,0.5
				c-1,0.2-2,0.4-3.1,0.4c-0.7,0-1.4-0.1-2.2-0.3c0,0,0,0,0,0c-0.3-0.1-0.6-0.1-0.9-0.2c-0.6,2.9-0.1,5.7,1.8,8.4
				c2.6,3.7,6.2,5.2,10.7,4.6c6.5-1,10.2-7.2,9-12.9c-0.2-0.1-0.5-0.2-0.8-0.4C-286.6,16.9-287.1,16.6-287.5,16.5z"/>
		</g>
	</g>
</g>
<g id="book">
	<path fill="#3E1151" d="M-384.7,15.6c0,3.3,0,6.6,0,9.9c0,0.7-0.5,1-1.2,0.9c-1.8-0.2-3.6-0.3-5.4-0.2c-2.1,0.1-4.1,0.5-6.1,1.2
		c-0.6,0.2-1.3-0.2-1.3-0.8c0-1,0-2,0-3c0-5.6,0-11.2,0-16.9c0-0.5,0.2-0.8,0.7-1c1.8-0.7,3.8-1.2,5.7-1.3c2.2-0.2,4.4-0.1,6.6,0.2
		c0.6,0.1,0.9,0.4,0.9,0.9C-384.7,9-384.7,12.3-384.7,15.6z"/>
	<path fill="#3E1151" d="M-415.3,15.6c0-3.3,0-6.6,0-9.9c0-0.7,0.3-0.9,1-1c1.9-0.2,3.9-0.3,5.8-0.2c2.3,0.1,4.4,0.6,6.5,1.4
		c0.5,0.2,0.6,0.5,0.6,0.9c0,6.6,0,13.2,0,19.9c0,0.7-0.6,1.1-1.3,0.8c-2.9-1-5.9-1.3-9.1-1.2c-0.8,0-1.6,0.1-2.4,0.2
		c-0.7,0.1-1.1-0.3-1.1-0.9C-415.3,22.3-415.3,18.9-415.3,15.6z"/>
</g>
<g id="arrows">
	<g>
		<path fill="#3E1151" d="M-357.3,23.3c0-0.3,0-0.4,0-0.6c0-6,0-12,0-18.1c0-0.5,0.1-1,0.5-1.4c0.5-0.4,1-0.6,1.6-0.3
			c0.6,0.2,0.9,0.7,1,1.3c0,0.1,0,0.2,0,0.3c0,6,0,12.1,0,18.1c0,0.1,0,0.3,0,0.5c0.5-0.7,1-1.2,1.5-1.8c0.6-0.8,1.3-1.5,1.9-2.3
			c0.6-0.7,1.5-0.8,2.2-0.3c0.6,0.5,0.8,1.4,0.3,2.1c-0.4,0.6-0.9,1.1-1.4,1.7c-1.6,2-3.2,3.9-4.7,5.9c-0.6,0.7-1.8,0.8-2.4,0
			c-1.9-2.3-3.8-4.7-5.6-7c-0.2-0.3-0.5-0.5-0.6-0.8c-0.4-0.7-0.1-1.5,0.5-2c0.6-0.4,1.5-0.3,2.1,0.3c0.8,1,1.6,1.9,2.4,2.9
			C-358,22.5-357.7,22.8-357.3,23.3z"/>
		<path fill="#3E1151" d="M-338.7,8.8c0,0.2,0,0.4,0,0.5c0,6,0,12.1,0,18.1c0,0.5-0.1,1-0.6,1.4c-0.5,0.4-1,0.5-1.5,0.2
			c-0.5-0.2-0.9-0.7-0.9-1.3c0-0.2,0-0.3,0-0.5c0-6,0-12,0-18c0-0.1,0-0.3,0-0.4c0,0-0.1,0-0.1,0c-0.5,0.6-0.9,1.1-1.4,1.7
			c-0.7,0.8-1.3,1.6-2,2.4c-0.5,0.6-1.2,0.6-1.9,0.3c-0.9-0.5-1-1.5-0.4-2.3c0.6-0.8,1.3-1.6,1.9-2.4c1.3-1.6,2.6-3.2,3.9-4.9
			c0.8-1,1.9-1.1,2.7,0c2,2.4,3.9,4.9,5.9,7.3c0.6,0.7,0.5,1.7-0.2,2.2c-0.7,0.6-1.7,0.4-2.3-0.3c-1-1.2-2-2.5-3-3.7
			C-338.5,9-338.6,9-338.7,8.8z"/>
	</g>
</g>
<g id="play">
	<path fill="#3E1151" d="M-439.9,18.8L-461,31.4c-1.9,1-4.2-0.3-4.3-2.5l-0.3-25.7c-0.1-2.3,2.4-3.7,4.3-2.6l21.4,13.2
		C-437.9,14.9-438,17.8-439.9,18.8z"/>
</g>
<g id="mesh">
	<path fill="#3E1151" d="M-496.2,6.6c0-0.1,0-0.2,0-0.3l0-0.8c0,0,0,0,0,0c0,0,0,0,0,0c0,0,0-0.1,0-0.1c0,0,0,0,0,0l-0.7-3.3
		c0-0.2-0.2-0.4-0.4-0.4c-0.2,0-0.4,0-0.5,0.2l-0.7,0.9l-1.2-1.9c-0.1-0.1-0.2-0.2-0.4-0.2c-0.2,0-0.3,0.1-0.4,0.2l-1.5,1.8
		l-1.1-1.7c-0.1-0.1-0.2-0.2-0.4-0.2c-0.2,0-0.3,0.1-0.4,0.2l-1.8,2.2l-1.2-1.8c-0.1-0.2-0.3-0.2-0.5-0.2c-0.2,0-0.3,0.1-0.4,0.3
		l-2.1,3.6c0,0,0,0,0,0c0,0,0,0,0,0c0,0,0,0.1,0,0.1c0,0,0,0,0,0l-0.9,4.5c0,0,0,0,0,0c0,0,0,0,0,0l-0.7,4.5c0,0,0,0,0,0
		c0,0,0,0,0,0l-0.1,4.9c0,0,0,0,0,0c0,0,0,0.1,0,0.1l0.8,3.7l-0.5,5.1l0,0v0v0c0,0.1,0,0.1,0,0.2c0,0,0,0,0,0c0,0,0,0.1,0,0.1l1.1,2
		c0.1,0.2,0.2,0.3,0.4,0.3c0,0,0,0,0.1,0c0.1,0,0.3-0.1,0.4-0.2l1.6-1.7l1.4,2.5c0.1,0.2,0.2,0.3,0.4,0.3c0,0,0,0,0,0
		c0.2,0,0.3-0.1,0.4-0.2l2.4-3.1l2,3c0.1,0.2,0.3,0.3,0.5,0.2c0.2,0,0.4-0.2,0.4-0.4l2.4-9.8c0,0,0,0,0,0c0,0,0,0,0,0l1.1-4.5
		c0,0,0,0,0-0.1c0,0,0,0,0,0l0.5-5.4c0,0,0,0,0,0c0,0,0,0,0,0L-496.2,6.6z M-499.9,24.5l-0.3-0.5l0.6-0.8L-499.9,24.5z M-500.8,23.1
		l-0.9-1.3l1.7-1.8l0.7,1.1L-500.8,23.1z M-510.2,21.6l-0.5-2.5l0.8-0.9l1.1,1.7L-510.2,21.6z M-509.1,12.6l1.1,1.7l-1.8,2.2
		l-0.6-0.9c-0.1-0.1-0.1-0.1-0.2-0.2l0-1L-509.1,12.6z M-510.3,12.3l0.2-1.3l0.4,0.6L-510.3,12.3z M-504.1,14l-1.5,1.9l-1.1-1.6
		l1.5-1.9L-504.1,14z M-504.5,11.6l1.7-2.1l1,1.5l-1.7,2.1L-504.5,11.6z M-507.3,13.4l-1.1-1.7l1.5-1.8l1.1,1.6L-507.3,13.4z
		 M-510.7,17l0.2,0.2l-0.2,0.2L-510.7,17z M-509.2,17.3l1.8-2.2l1.1,1.6l-1.8,2.2L-509.2,17.3z M-505.7,17.7l1.2,1.7l-1.8,2.1
		l-1.1-1.7L-505.7,17.7z M-505,16.8l1.5-1.9l1.2,1.8l-1.6,1.9L-505,16.8z M-502.8,14l1.7-2.1l1.3,1.9l-1.7,2L-502.8,14z M-500.4,11
		l1.4-1.8l1.3,2l-1.4,1.7L-500.4,11z M-498.3,8.4l1-1.3l-0.1,2.8L-498.3,8.4z M-498.9,7.4l-0.9-1.4l1.2-1.5l0.9,1.4L-498.9,7.4z
		 M-499.6,8.3l-1.4,1.8l-1-1.5l1.5-1.8L-499.6,8.3z M-502.6,7.7l-1.1-1.6l1.5-1.8l1,1.6L-502.6,7.7z M-503.3,8.6l-1.7,2.1l-1.1-1.6
		l1.8-2.1L-503.3,8.6z M-506.8,8.2l-0.8-1.2l1.8-2.2l0.9,1.3L-506.8,8.2z M-507.5,9l-1.5,1.8l-0.8-1.2l1.5-1.8L-507.5,9z
		 M-509.5,7.6l0.2-1.2l0.3,0.5L-509.5,7.6z M-510.1,24.5l0.5,0.9l-0.7,0.8L-510.1,24.5z M-509.8,22.8l1.7-2.1l1.1,1.7l-1.8,2.2
		L-509.8,22.8z M-506.4,23.3l0.8,1.2l-2.1,2.2l-0.6-1.2L-506.4,23.3z M-505.7,22.5l1.8-2.1l0.9,1.4l-1.9,2L-505.7,22.5z
		 M-503.2,19.5l1.6-1.9l1.1,1.5l-1.7,1.8L-503.2,19.5z M-498.8,19.9l-0.5-0.7l0.9-0.9L-498.8,19.9z M-499.9,18.3l-1.1-1.6l1.7-2
		l1.2,1.7L-499.9,18.3z M-497.8,14.9l-0.7-1.1l1-1.1L-497.8,14.9z M-497.7,3.4l0.2,0.8l-0.4-0.6L-497.7,3.4z M-500.2,2l1,1.5
		l-1.2,1.5l-1-1.6L-500.2,2z M-503.7,2.1l0.9,1.4l-1.5,1.8l-0.9-1.3L-503.7,2.1z M-507.4,2.5l0.9,1.3l-1.8,2.2l-0.7-1L-507.4,2.5z
		 M-509.8,29l-0.5-1l1.3-1.5l0.6,1.1L-509.8,29z M-506,29.9l-1.2-2.1l2.2-2.3l1.1,1.7L-506,29.9z M-504.3,24.6l1.9-2l0.9,1.4
		l-1.7,2.2L-504.3,24.6z M-501.1,29.4l-1.5-2.3l1.7-2.2l0.7,1L-501.1,29.4z"/>
</g>
<g id="user">
	<path fill="#3E1151" d="M-555.5,31.5c-4.3,0-7.8-0.8-11.1-2.7c-0.7-0.4-1.3-0.9-2-1.3c-0.1-0.1-0.2-0.2-0.2-0.3
		c0-1.3-0.1-2.7,0.3-4c0.7-2.6,2.4-4.3,4.9-5.3c0.9-0.4,1.9-0.6,2.8-0.9c0.1,0,0.3,0,0.4,0.1c0.9,0.9,2,1.3,3.2,1.5
		c1.3,0.2,2.6,0.1,3.8-0.3c0.7-0.2,1.3-0.6,1.8-1.1c0.1-0.1,0.3-0.2,0.4-0.1c1.9,0.4,3.8,1,5.3,2.3c1.4,1.2,2.3,2.7,2.6,4.6
		c0.2,1.1,0.1,2.2,0.1,3.2c0,0.1-0.1,0.2-0.2,0.3c-2.3,1.7-4.8,2.8-7.5,3.4C-552.7,31.4-554.3,31.6-555.5,31.5z"/>
	<path fill="#3E1151" d="M-562.1,7c0-0.6-0.1-1.3,0-2c0.2-2.2,1.5-3.7,3.6-4.2c1.9-0.5,3.8-0.5,5.7,0.2c1.9,0.7,2.8,2.2,3,4.1
		c0.1,0.6,0,1.3,0,1.9c0.1,0,0.2,0.1,0.3,0.1c0.4,0.1,0.6,0.4,0.6,0.8c0,0.6,0,1.1,0,1.7c0,0.4-0.2,0.7-0.6,0.7
		c-0.2,0-0.3,0.2-0.4,0.3c-0.5,1.2-1.1,2.5-1.6,3.7c-0.5,1-1.1,1.8-2.2,2.2c-1.5,0.5-3,0.5-4.5,0c-1-0.4-1.6-1.1-2-2
		c-0.6-1.2-1.1-2.5-1.7-3.8c-0.1-0.2-0.2-0.4-0.4-0.4c-0.3-0.1-0.5-0.3-0.5-0.6c0-0.6,0-1.2,0-1.8C-563,7.4-562.8,7.2-562.1,7z"/>
</g>
<g id="bar-chart">
	<path fill="#3E1151" d="M-619.2,31.9L-619.2,31.9c-2.5,0-4.6-2.1-4.6-4.6v-3.7c0-2.5,2.1-4.6,4.6-4.6l0,0c2.5,0,4.6,2.1,4.6,4.6
		v3.7C-614.6,29.9-616.7,31.9-619.2,31.9z"/>
	<path fill="#3E1151" d="M-608,31.9L-608,31.9c-2.5,0-4.6-2.1-4.6-4.6V15c0-2.5,2.1-4.6,4.6-4.6l0,0c2.5,0,4.6,2.1,4.6,4.6v12.4
		C-603.4,29.9-605.5,31.9-608,31.9z"/>
	<path fill="#3E1151" d="M-596.8,31.9L-596.8,31.9c-2.5,0-4.6-2.1-4.6-4.6V4.7c0-2.5,2.1-4.6,4.6-4.6l0,0c2.5,0,4.6,2.1,4.6,4.6
		v22.6C-592.2,29.8-594.2,31.9-596.8,31.9z"/>
</g>
<g id="clone">
	<path fill="#3E1151" d="M-665.1,10.5h13.8V8.2c0-1.5-1.2-2.8-2.8-2.8h-18.9c-1.5,0-2.8,1.2-2.8,2.8v10.6c0,1.5,1.2,2.8,2.8,2.8h4.2
		v-7.4C-668.8,12.1-667.1,10.5-665.1,10.5z"/>
	<g>
		<path fill="#3E1151" d="M-646.2,12.3h-5.1h-13.8c-1,0-1.8,0.8-1.8,1.8v7.4v3.2c0,1,0.8,1.8,1.8,1.8h18.9c1,0,1.8-0.8,1.8-1.8V14.2
			C-644.3,13.1-645.1,12.3-646.2,12.3z"/>
	</g>
</g>
<g id="list-ul">
	<path fill="#3E1151" d="M-696.2,6.2v1.6c0,0.4-0.7,0.7-1.6,0.7h-19.3c-0.9,0-1.6-0.3-1.6-0.7V6.2c0-0.4,0.7-0.7,1.6-0.7h19.3
		C-696.9,5.6-696.2,5.9-696.2,6.2z"/>
	<path fill="#3E1151" d="M-696.2,15.4V17c0,0.4-0.7,0.7-1.6,0.7h-19.3c-0.9,0-1.6-0.3-1.6-0.7v-1.6c0-0.4,0.7-0.7,1.6-0.7h19.3
		C-696.9,14.7-696.2,15-696.2,15.4z"/>
	<path fill="#3E1151" d="M-696.2,24.3v1.6c0,0.4-0.7,0.7-1.6,0.7h-19.3c-0.9,0-1.6-0.3-1.6-0.7v-1.6c0-0.4,0.7-0.7,1.6-0.7h19.3
		C-696.9,23.6-696.2,23.9-696.2,24.3z"/>
	<circle fill="#3E1151" cx="-724.9" cy="7.3" r="2.6"/>
	<circle fill="#3E1151" cx="-724.9" cy="16" r="2.6"/>
	<circle fill="#3E1151" cx="-724.9" cy="24.7" r="2.6"/>
</g>
<g id="bottle-o">
	<g>
		<path fill="#3E1151" d="M-773.1,26.8c0,1.4,1.1,2.5,2.5,2.5c4.4,0,8.8,0,13.2,0c1.4,0,2.5-1.1,2.5-2.5c0-5.2,0-10.4,0-15.6
			c0-1.4-1.1-2.5-2.5-2.5c-4.4,0-8.8,0-13.2,0c-1.4,0-2.5,1.1-2.5,2.5c0,2.6,0,5.2,0,7.8C-773.1,21.6-773.1,24.2-773.1,26.8
			 M-758.6,2.7h-2.4c0,0.8,0,1.6,0,2.3c0,0.2-0.1,0.4-0.3,0.6c-0.4,0.3-0.9,0-0.9-0.5c0-0.7,0-1.5,0-2.2V2.7h-3.6v0.2
			c0,0.7,0,1.4,0,2.1c0,0.4-0.2,0.7-0.6,0.7c-0.4,0-0.6-0.3-0.6-0.7c0-0.7,0-1.4,0-2.1V2.7h-2.4v4.8h10.8V2.7z M-772.5,8
			c0.5-0.3,1.2-0.5,1.8-0.5V7.3c0-1.5,0-3,0-4.5c0-0.7,0.5-1.3,1.2-1.3c3.6,0,7.2,0,10.8,0c0.7,0,1.2,0.5,1.2,1.3c0,1.5,0,3,0,4.5
			v0.2c0.2,0,0.4,0,0.6,0.1c1.8,0.3,3,1.8,3,3.6c0,5.2,0,10.4,0,15.6c0,0.2,0,0.3,0,0.5c-0.2,1.8-1.8,3.2-3.6,3.2
			c-4.4,0-8.9,0-13.3,0c-0.2,0-0.4,0-0.7-0.1c-1.8-0.4-3-1.8-3-3.7c0-4.2,0-8.3,0-12.5c0-1.1,0-2.1,0-3.2
			C-774.2,9.7-773.6,8.7-772.5,8"/>
		<path fill="#3E1151" d="M-767,18.4v1.2h2.4V22h1.2v-2.4h2.4v-1.2h-2.4V16h-1.2v2.4H-767z M-765.8,14.8h3.6v2.4h2.4v3.6h-2.4v2.4
			h-3.6v-2.4h-2.4v-3.6h2.4V14.8z"/>
		<path fill="#3E1151" d="M-758.5,10c0.3,0,0.7,0,1,0c0.8,0,1.3,0.5,1.3,1.3v16.1c0,0.5-0.2,0.8-0.6,0.8c-0.4,0-0.6-0.3-0.6-0.8
			V11.5v-0.3c-0.4,0-0.8,0-1.1,0c-0.4,0-0.7-0.2-0.7-0.6C-759.2,10.2-758.9,10-758.5,10"/>
	</g>
</g>
<g id="bottle">
	<path fill="#3E1151" d="M-826.2,19.6c0-3.2,0-6.4,0-9.6c0-1.2,0.7-2.1,1.9-2.3c0.1,0,0.3,0,0.4,0c5.3,0,10.5,0,15.8,0
		c1.3,0,2.3,1,2.3,2.3c0,0.8,0,1.6,0,2.4c0,5.7,0,11.3,0,17c0,1.2-0.7,2.1-1.9,2.4c-0.1,0-0.3,0-0.4,0c-5.2,0-10.5,0-15.7,0
		c-1.4,0-2.3-1-2.3-2.3C-826.2,26.1-826.2,22.9-826.2,19.6z"/>
	<path fill="#3E1151" d="M-824,6.5c0-1.6,0-3.2,0-4.8c0-0.1,0-0.1,0-0.2c0.1-0.6,0.6-1.1,1.3-1.1c0.1,0,0.3,0,0.4,0
		c4.2,0,8.4,0,12.6,0c1.1,0,1.7,0.8,1.7,1.7c0,1.4,0,2.8,0,4.2c0,0.1,0,0.2,0,0.3C-813.3,6.5-818.7,6.5-824,6.5z"/>
</g>
</svg>
