<?xml version="1.0" encoding="utf-8"?>
<!-- Generator: Adobe Illustrator 18.1.1, SVG Export Plug-In . SVG Version: 6.00 Build 0)  -->
<svg version="1.1" xmlns="http://www.w3.org/2000/svg" xmlns:xlink="http://www.w3.org/1999/xlink" x="0px" y="0px"
	 viewBox="0 0 32 32" enable-background="new 0 0 32 32" xml:space="preserve">
<g id="clipboard">
</g>
<g id="zoom-in">
</g>
<g id="tiles">
</g>
<g id="chevron-down">
</g>
<g id="chevron-up">
</g>
<g id="chevron-right">
</g>
<g id="chevron-left_copy">
</g>
<g id="heart">
</g>
<g id="stethoscope">
</g>
<g id="users">
</g>
<g id="nurse">
</g>
<g id="book">
</g>
<g id="arrows">
	<g>
		<path fill="#3E1151" d="M6.7,23.3c0-0.3,0-0.4,0-0.6c0-6,0-12,0-18.1c0-0.5,0.1-1,0.5-1.4c0.5-0.4,1-0.6,1.6-0.3
			c0.6,0.2,0.9,0.7,1,1.3c0,0.1,0,0.2,0,0.3c0,6,0,12.1,0,18.1c0,0.1,0,0.3,0,0.5c0.5-0.7,1-1.2,1.5-1.8c0.6-0.8,1.3-1.5,1.9-2.3
			c0.6-0.7,1.5-0.8,2.2-0.3c0.6,0.5,0.8,1.4,0.3,2.1c-0.4,0.6-0.9,1.1-1.4,1.7c-1.6,2-3.2,3.9-4.7,5.9c-0.6,0.7-1.8,0.8-2.4,0
			c-1.9-2.3-3.8-4.7-5.6-7c-0.2-0.3-0.5-0.5-0.6-0.8c-0.4-0.7-0.1-1.5,0.5-2c0.6-0.4,1.5-0.3,2.1,0.3c0.8,1,1.6,1.9,2.4,2.9
			C6,22.5,6.3,22.8,6.7,23.3z"/>
		<path fill="#3E1151" d="M25.3,8.8c0,0.2,0,0.4,0,0.5c0,6,0,12.1,0,18.1c0,0.5-0.1,1-0.6,1.4c-0.5,0.4-1,0.5-1.5,0.2
			c-0.5-0.2-0.9-0.7-0.9-1.3c0-0.2,0-0.3,0-0.5c0-6,0-12,0-18c0-0.1,0-0.3,0-0.4c0,0-0.1,0-0.1,0c-0.5,0.6-0.9,1.1-1.4,1.7
			c-0.7,0.8-1.3,1.6-2,2.4c-0.5,0.6-1.2,0.6-1.9,0.3c-0.9-0.5-1-1.5-0.4-2.3c0.6-0.8,1.3-1.6,1.9-2.4c1.3-1.6,2.6-3.2,3.9-4.9
			c0.8-1,1.9-1.1,2.7,0c2,2.4,3.9,4.9,5.9,7.3c0.6,0.7,0.5,1.7-0.2,2.2c-0.7,0.6-1.7,0.4-2.3-0.3c-1-1.2-2-2.5-3-3.7
			C25.5,9,25.4,9,25.3,8.8z"/>
	</g>
</g>
<g id="play">
</g>
<g id="mesh">
</g>
<g id="user">
</g>
<g id="bar-chart">
</g>
<g id="clone">
</g>
<g id="list-ul">
</g>
<g id="bottle-o">
</g>
<g id="bottle">
</g>
</svg>
