<?xml version="1.0" encoding="utf-8"?>
<!-- Generator: Adobe Illustrator 18.1.1, SVG Export Plug-In . SVG Version: 6.00 Build 0)  -->
<svg version="1.1" xmlns="http://www.w3.org/2000/svg" xmlns:xlink="http://www.w3.org/1999/xlink" x="0px" y="0px"
	 viewBox="0 0 32 32" enable-background="new 0 0 32 32" xml:space="preserve">
<g id="clipboard">
</g>
<g id="zoom-in">
</g>
<g id="tiles">
</g>
<g id="chevron-down">
</g>
<g id="chevron-up">
</g>
<g id="chevron-right">
</g>
<g id="chevron-left_copy">
</g>
<g id="heart">
</g>
<g id="stethoscope">
</g>
<g id="users">
</g>
<g id="nurse">
</g>
<g id="book">
</g>
<g id="arrows">
</g>
<g id="play">
</g>
<g id="mesh">
</g>
<g id="user">
</g>
<g id="bar-chart">
</g>
<g id="clone">
</g>
<g id="list-ul">
</g>
<g id="bottle-o">
	<g>
		<path fill="#3E1151" d="M6.9,26.8c0,1.4,1.1,2.5,2.5,2.5c4.4,0,8.8,0,13.2,0c1.4,0,2.5-1.1,2.5-2.5c0-5.2,0-10.4,0-15.6
			c0-1.4-1.1-2.5-2.5-2.5c-4.4,0-8.8,0-13.2,0c-1.4,0-2.5,1.1-2.5,2.5c0,2.6,0,5.2,0,7.8C6.9,21.6,6.9,24.2,6.9,26.8 M21.4,2.7H19
			c0,0.8,0,1.6,0,2.3c0,0.2-0.1,0.4-0.3,0.6c-0.4,0.3-0.9,0-0.9-0.5c0-0.7,0-1.5,0-2.2V2.7h-3.6v0.2c0,0.7,0,1.4,0,2.1
			c0,0.4-0.2,0.7-0.6,0.7C13.2,5.7,13,5.5,13,5c0-0.7,0-1.4,0-2.1V2.7h-2.4v4.8h10.8V2.7z M7.5,8c0.5-0.3,1.2-0.5,1.8-0.5V7.3
			c0-1.5,0-3,0-4.5c0-0.7,0.5-1.3,1.2-1.3c3.6,0,7.2,0,10.8,0c0.7,0,1.2,0.5,1.2,1.3c0,1.5,0,3,0,4.5v0.2c0.2,0,0.4,0,0.6,0.1
			c1.8,0.3,3,1.8,3,3.6c0,5.2,0,10.4,0,15.6c0,0.2,0,0.3,0,0.5c-0.2,1.8-1.8,3.2-3.6,3.2c-4.4,0-8.9,0-13.3,0c-0.2,0-0.4,0-0.7-0.1
			c-1.8-0.4-3-1.8-3-3.7c0-4.2,0-8.3,0-12.5c0-1.1,0-2.1,0-3.2C5.8,9.7,6.4,8.7,7.5,8"/>
		<path fill="#3E1151" d="M13,18.4v1.2h2.4V22h1.2v-2.4H19v-1.2h-2.4V16h-1.2v2.4H13z M14.2,14.8h3.6v2.4h2.4v3.6h-2.4v2.4h-3.6
			v-2.4h-2.4v-3.6h2.4V14.8z"/>
		<path fill="#3E1151" d="M21.5,10c0.3,0,0.7,0,1,0c0.8,0,1.3,0.5,1.3,1.3v16.1c0,0.5-0.2,0.8-0.6,0.8c-0.4,0-0.6-0.3-0.6-0.8V11.5
			v-0.3c-0.4,0-0.8,0-1.1,0c-0.4,0-0.7-0.2-0.7-0.6C20.8,10.2,21.1,10,21.5,10"/>
	</g>
</g>
<g id="bottle">
</g>
</svg>
