<?xml version="1.0" encoding="utf-8"?>
<!-- Generator: Adobe Illustrator 18.1.1, SVG Export Plug-In . SVG Version: 6.00 Build 0)  -->
<svg version="1.1" xmlns="http://www.w3.org/2000/svg" xmlns:xlink="http://www.w3.org/1999/xlink" x="0px" y="0px"
	 viewBox="0 0 32 32" enable-background="new 0 0 32 32" xml:space="preserve">
<g id="clipboard">
</g>
<g id="zoom-in">
</g>
<g id="tiles">
</g>
<g id="chevron-down">
</g>
<g id="chevron-up">
</g>
<g id="chevron-right">
</g>
<g id="chevron-left_copy">
</g>
<g id="heart">
</g>
<g id="stethoscope">
</g>
<g id="users">
</g>
<g id="nurse">
</g>
<g id="book">
	<path fill="#3E1151" d="M31.3,15.6c0,3.3,0,6.6,0,9.9c0,0.7-0.5,1-1.2,0.9c-1.8-0.2-3.6-0.3-5.4-0.2c-2.1,0.1-4.1,0.5-6.1,1.2
		c-0.6,0.2-1.3-0.2-1.3-0.8c0-1,0-2,0-3c0-5.6,0-11.2,0-16.9c0-0.5,0.2-0.8,0.7-1c1.8-0.7,3.8-1.2,5.7-1.3c2.2-0.2,4.4-0.1,6.6,0.2
		c0.6,0.1,0.9,0.4,0.9,0.9C31.3,9,31.3,12.3,31.3,15.6z"/>
	<path fill="#3E1151" d="M0.7,15.6c0-3.3,0-6.6,0-9.9c0-0.7,0.3-0.9,1-1c1.9-0.2,3.9-0.3,5.8-0.2c2.3,0.1,4.4,0.6,6.5,1.4
		c0.5,0.2,0.6,0.5,0.6,0.9c0,6.6,0,13.2,0,19.9c0,0.7-0.6,1.1-1.3,0.8c-2.9-1-5.9-1.3-9.1-1.2c-0.8,0-1.6,0.1-2.4,0.2
		c-0.7,0.1-1.1-0.3-1.1-0.9C0.7,22.3,0.7,18.9,0.7,15.6z"/>
</g>
<g id="arrows">
</g>
<g id="play">
</g>
<g id="mesh">
</g>
<g id="user">
</g>
<g id="bar-chart">
</g>
<g id="clone">
</g>
<g id="list-ul">
</g>
<g id="bottle-o">
</g>
<g id="bottle">
</g>
</svg>
