<?xml version="1.0" encoding="utf-8"?>
<!-- Generator: Adobe Illustrator 18.1.1, SVG Export Plug-In . SVG Version: 6.00 Build 0)  -->
<svg version="1.1" xmlns="http://www.w3.org/2000/svg" xmlns:xlink="http://www.w3.org/1999/xlink" x="0px" y="0px"
	 viewBox="0 0 32 32" enable-background="new 0 0 32 32" xml:space="preserve">
<g id="clipboard">
</g>
<g id="zoom-in">
</g>
<g id="tiles">
</g>
<g id="chevron-down">
</g>
<g id="chevron-up">
</g>
<g id="chevron-right">
</g>
<g id="chevron-left_copy">
</g>
<g id="heart">
</g>
<g id="stethoscope">
</g>
<g id="users">
</g>
<g id="nurse">
</g>
<g id="book">
</g>
<g id="arrows">
</g>
<g id="play">
</g>
<g id="mesh">
</g>
<g id="user">
</g>
<g id="bar-chart">
	<path fill="#3E1151" d="M4.8,31.9L4.8,31.9c-2.5,0-4.6-2.1-4.6-4.6v-3.7c0-2.5,2.1-4.6,4.6-4.6h0c2.5,0,4.6,2.1,4.6,4.6v3.7
		C9.4,29.9,7.3,31.9,4.8,31.9z"/>
	<path fill="#3E1151" d="M16,31.9L16,31.9c-2.5,0-4.6-2.1-4.6-4.6V15c0-2.5,2.1-4.6,4.6-4.6h0c2.5,0,4.6,2.1,4.6,4.6v12.4
		C20.6,29.9,18.5,31.9,16,31.9z"/>
	<path fill="#3E1151" d="M27.2,31.9L27.2,31.9c-2.5,0-4.6-2.1-4.6-4.6V4.7c0-2.5,2.1-4.6,4.6-4.6h0c2.5,0,4.6,2.1,4.6,4.6v22.6
		C31.8,29.8,29.8,31.9,27.2,31.9z"/>
</g>
<g id="clone">
</g>
<g id="list-ul">
</g>
<g id="bottle-o">
</g>
<g id="bottle">
</g>
</svg>
