<?xml version="1.0" encoding="utf-8"?>
<!-- Generator: Adobe Illustrator 18.1.1, SVG Export Plug-In . SVG Version: 6.00 Build 0)  -->
<svg version="1.1" xmlns="http://www.w3.org/2000/svg" xmlns:xlink="http://www.w3.org/1999/xlink" x="0px" y="0px"
	 viewBox="0 0 32 32" enable-background="new 0 0 32 32" xml:space="preserve">
<g id="clipboard">
</g>
<g id="zoom-in">
</g>
<g id="tiles">
</g>
<g id="chevron-down">
</g>
<g id="chevron-up">
</g>
<g id="chevron-right">
</g>
<g id="chevron-left_copy">
</g>
<g id="heart">
</g>
<g id="stethoscope">
</g>
<g id="users">
</g>
<g id="nurse">
</g>
<g id="book">
</g>
<g id="arrows">
</g>
<g id="play">
</g>
<g id="mesh">
</g>
<g id="user">
</g>
<g id="bar-chart">
</g>
<g id="clone">
</g>
<g id="list-ul">
</g>
<g id="bottle-o">
</g>
<g id="bottle">
	<g>
		<path fill="#3E1151" d="M22.7,2.5V0.4c0-0.2-0.2-0.3-0.3-0.3H9.6c-0.2,0-0.3,0.2-0.3,0.3v2.1H22.7z"/>
		<rect x="9.8" y="3.4" fill="#3E1151" width="12.3" height="2.5"/>
		<path fill="#3E1151" d="M22.6,10.1c-1.4-0.5-1.4-1.8-1.4-1.8V6.8l-1.5,0H17h-2h-2.7l-1.5,0v1.5c0,0,0,1.3-1.4,1.8
			c-1.4,0.5-1.8,1.9-1.8,1.9s0,17.7,0,18.7s1.6,1.2,1.6,1.2H15h2h5.8c0,0,1.6-0.2,1.6-1.2s0-18.7,0-18.7S23.9,10.6,22.6,10.1z"/>
	</g>
</g>
<g id="Layer_22">
</g>
</svg>
