<?xml version="1.0" encoding="utf-8"?>
<!-- Generator: Adobe Illustrator 18.1.1, SVG Export Plug-In . SVG Version: 6.00 Build 0)  -->
<svg version="1.1" xmlns="http://www.w3.org/2000/svg" xmlns:xlink="http://www.w3.org/1999/xlink" x="0px" y="0px"
	 viewBox="0 0 32 32" enable-background="new 0 0 32 32" xml:space="preserve">
<g id="clipboard">
</g>
<g id="transition">
</g>
<g id="zoom-in">
</g>
<g id="tiles">
</g>
<g id="chevron-down">
</g>
<g id="chevron-up">
</g>
<g id="chevron-right">
</g>
<g id="chevron-left_copy">
</g>
<g id="heart">
</g>
<g id="stethoscope">
</g>
<g id="users">
</g>
<g id="nurse">
</g>
<g id="book">
</g>
<g id="arrows">
</g>
<g id="play">
</g>
<g id="mesh">
</g>
<g id="user">
</g>
<g id="bar-chart">
</g>
<g id="clone">
</g>
<g id="list-ul">
</g>
<g id="bottle-o">
</g>
<g id="bottle">
</g>
<g id="rotate">
</g>
<g id="winds">
</g>
<g id="chevrons">
	<g>
		<g>
			<path fill="#3E1151" d="M27,18.5L16,29.3L5,18.5c-0.4-0.4-1.1-0.4-1.5,0s-0.4,1.1,0,1.5l11.7,11.6c0.2,0.2,0.5,0.3,0.8,0.3
				s0.6-0.1,0.8-0.3L28.5,20c0.4-0.4,0.4-1.1,0-1.5C28.1,18.1,27.4,18.1,27,18.5z M27.7,9.5c-0.3,0-0.6,0.1-0.8,0.3L16,20.6L5,9.8
				C4.8,9.6,4.5,9.5,4.3,9.5C4,9.5,3.7,9.6,3.5,9.8c-0.4,0.4-0.4,1.1,0,1.5l11.7,11.6c0.2,0.2,0.5,0.3,0.8,0.3s0.6-0.1,0.8-0.3
				l11.7-11.6c0.4-0.4,0.4-1.1,0-1.5C28.3,9.6,28,9.5,27.7,9.5z M15.2,13.5c0.2,0.2,0.5,0.3,0.8,0.3s0.6-0.1,0.8-0.3L28.5,1.9
				c0.4-0.4,0.4-1.1,0-1.5c-0.2-0.2-0.5-0.3-0.8-0.3c-0.3,0-0.6,0.1-0.8,0.3L16,11.2L5,0.4C4.8,0.2,4.5,0.1,4.3,0.1
				C4,0.1,3.7,0.2,3.5,0.4c-0.4,0.4-0.4,1.1,0,1.5L15.2,13.5z"/>
		</g>
	</g>
</g>
</svg>
