<?xml version="1.0" encoding="utf-8"?>
<!-- Generator: Adobe Illustrator 18.1.1, SVG Export Plug-In . SVG Version: 6.00 Build 0)  -->
<svg version="1.1" xmlns="http://www.w3.org/2000/svg" xmlns:xlink="http://www.w3.org/1999/xlink" x="0px" y="0px"
	 viewBox="0 0 32 32" enable-background="new 0 0 32 32" xml:space="preserve">
<g id="clipboard">
	<g>
		<path fill="#3E1151" d="M15.9,4.2c-0.4,0-0.7-0.3-0.7-0.7s0.3-0.7,0.7-0.7c0.4,0,0.7,0.3,0.7,0.7S16.3,4.2,15.9,4.2 M20.4,4.5
			c0-0.2-0.1-0.3-0.4-0.4c-0.2,0-0.4,0-0.6,0c-0.7,0-1.2-0.3-1.6-0.8c-0.2-0.2-0.3-0.5-0.5-0.7c-0.2-0.4-0.5-0.6-1-0.6
			c-0.3,0-0.5,0-0.8,0c-0.6,0-1,0.3-1.3,0.8c0,0.1-0.1,0.2-0.1,0.3c-0.3,0.6-0.8,1-1.5,1.1c-0.3,0-0.6,0-1,0.1
			c-0.3,0-0.4,0.1-0.4,0.4c0,0.5,0,1,0,1.5c0,0.3,0.1,0.4,0.4,0.4c0.1,0,0.1,0,0.2,0c1.3,0,2.6,0,4,0c1.3,0,2.7,0,4,0
			c0.1,0,0.1,0,0.2,0c0.3,0,0.4-0.1,0.4-0.4C20.5,5.6,20.5,5,20.4,4.5"/>
		<path fill="#3E1151" d="M12.4,12.5L12.4,12.5c0,0.1,0,0.1,0,0.2v0c0,0.1-0.1,0.1-0.2,0.1c-0.2,0-0.2-0.1-0.2-0.3c0,0,0-0.1,0-0.1
			c0-0.1,0-0.3,0-0.5c0-0.2,0-0.4-0.1-0.5c0,0,0,0-0.1,0c-0.2,0-0.6,0.5-0.7,0.7c-0.1,0.2-0.1,0.4-0.1,0.5v0.1c0,0,0,0,0,0
			c0,0.2-0.1,0.3-0.2,0.3c-0.1,0-0.2-0.1-0.2-0.2c0,0,0-0.1,0-0.1c0-0.1,0-0.1,0-0.2c0-0.5,0-0.9,0.1-1.4c0-0.3,0-0.6,0.1-0.7
			c0-0.2,0.1-0.3,0.2-0.3h0c0.1,0,0.2,0.1,0.2,0.2c0,0,0,0,0,0c0,0.1-0.1,0.3-0.1,0.6c0,0.3,0,0.6-0.1,0.8c0.2-0.2,0.6-0.6,0.9-0.6
			c0,0,0.1,0,0.1,0c0.2,0.1,0.3,0.6,0.3,1C12.4,12.2,12.4,12.4,12.4,12.5"/>
		<path fill="#3E1151" d="M13.3,11.3c0,0.1-0.1,0.8-0.1,1v0.1c0,0.1,0,0.1,0,0.2c0,0,0,0,0,0.1c0,0.1-0.1,0.2-0.2,0.2
			c0,0-0.1,0-0.1-0.1c0,0-0.1-0.2-0.1-0.3v0c0-0.2,0-0.4,0-0.8c0-0.1,0-0.5,0.2-0.5h0C13.2,11,13.3,11.1,13.3,11.3L13.3,11.3z
			 M13.3,10c0,0,0,0.1,0,0.1c-0.1,0.1-0.1,0.2-0.1,0.3c0,0.1-0.1,0.1-0.2,0.1c0,0-0.1,0-0.1,0c0,0,0-0.1,0-0.1
			c0-0.1,0.1-0.3,0.1-0.4c0-0.1,0.1-0.2,0.2-0.2C13.2,9.8,13.3,9.9,13.3,10L13.3,10z"/>
		<path fill="#3E1151" d="M14.1,13.1L14.1,13.1c-0.1,0-0.2-0.1-0.2-0.2c0,0,0-0.1,0-0.1c0-0.1,0.6-0.2,0.6-0.3v0
			c0-0.1-0.9-0.1-0.9-0.7c0,0,0,0,0-0.1c0-0.4,0.4-0.8,0.7-1c0.1,0,0.1-0.1,0.2-0.1c0.2,0,0.3,0.1,0.3,0.2v0c0,0.1,0,0.1-0.1,0.1
			c-0.1,0-0.1,0-0.1,0c-0.1,0-0.3,0.2-0.4,0.3c-0.2,0.1-0.2,0.4-0.2,0.5c0,0,0,0,0,0c0.1,0.4,0.9,0.2,1,0.7v0
			C14.9,12.8,14.3,13.1,14.1,13.1"/>
		<path fill="#3E1151" d="M16.7,11.2L16.7,11.2c-0.1,0-0.1,0-0.2,0c-0.2,0-0.4,0-0.6,0.1c0,0.2-0.1,0.8-0.1,1.1c0,0.1,0,0.2,0,0.3
			c0,0,0,0.1,0,0.1c0,0.1-0.1,0.2-0.1,0.2c-0.1,0-0.2-0.1-0.2-0.3v0c0-0.2,0-0.4,0-0.8c0-0.2,0-0.3,0.1-0.4
			c-0.2,0.1-0.2,0.1-0.4,0.2c0,0-0.1,0-0.1,0c0,0,0,0,0,0c-0.1,0-0.2-0.1-0.2-0.2c0-0.1,0-0.1,0.1-0.1c0.1-0.1,0.5-0.2,0.7-0.3
			c0-0.1,0.1-0.4,0.1-0.7v0c0,0,0-0.1,0-0.1c0-0.1,0-0.2,0.2-0.2c0.1,0,0.2,0.2,0.2,0.4c0,0.3-0.1,0.6-0.1,0.7c0.2,0,0.3,0,0.4,0
			c0.1,0,0.1,0,0.2,0c0.2,0,0.2,0.1,0.2,0.2C16.8,11.1,16.8,11.2,16.7,11.2"/>
		<path fill="#3E1151" d="M17.4,11.6c0-0.1-0.1-0.1-0.2-0.2c-0.1,0-0.4,0.1-0.5,0.6c0,0,0,0.1,0,0.1c0,0.1,0.1,0.3,0.2,0.3
			c0,0,0,0,0,0c0.1,0,0.4-0.2,0.4-0.3c0.1-0.1,0.1-0.3,0.1-0.4C17.5,11.7,17.5,11.6,17.4,11.6 M16.9,12.8c-0.1,0-0.1,0-0.2,0
			c-0.2-0.1-0.3-0.3-0.3-0.6c0-0.1,0-0.2,0.1-0.3c0.2-0.5,0.5-0.7,0.7-0.7h0c0.2,0,0.5,0.1,0.6,0.6c0,0,0,0.1,0,0.1
			C17.8,12.4,17.2,12.8,16.9,12.8"/>
		<path fill="#3E1151" d="M19.6,11.3C19.6,11.3,19.6,11.3,19.6,11.3c-0.1,0-0.1,0-0.2,0c0,0,0,0-0.1,0c-0.2,0.1-0.5,0.5-0.8,0.9
			c-0.1,0.2-0.1,0.5-0.1,0.6c0,0-0.1,0.1-0.1,0.1c-0.1,0-0.1,0-0.2-0.1c0,0,0-0.1,0-0.1c0,0,0-0.1,0-0.1c0-0.2,0.1-0.5,0.1-0.7
			c0-0.2,0-0.4-0.1-0.6c0,0,0,0,0,0c0-0.1,0.1-0.1,0.2-0.1c0,0,0.1,0,0.1,0c0.1,0.1,0.1,0.2,0.1,0.4c0,0.1,0,0.2,0,0.3v0
			c0.1-0.2,0.5-0.6,0.7-0.7c0.1,0,0.2-0.1,0.3-0.1c0.1,0,0.1,0,0.2,0c0,0,0.1,0.1,0.1,0.2C19.7,11.3,19.7,11.3,19.6,11.3"/>
		<path fill="#3E1151" d="M21.1,11.7c0,0.2-0.1,1.1-0.2,1.8c0,0-0.1,0.8-0.1,0.8c0,0,0.1,0.1,0.1,0.2c0,0.1-0.1,0.2-0.2,0.2
			c-0.1,0-0.2-0.1-0.2-0.2v0c0,0,0-0.2,0.1-0.2c0,0,0-0.5,0.1-1.2c0-0.5,0.1-0.8,0.1-1.3c-0.2,0.3-0.6,0.8-0.8,0.8
			c-0.1,0-0.2-0.1-0.2-0.3c0-0.2,0.1-0.6,0.1-0.9c0-0.1,0-0.4,0.2-0.4c0,0,0,0,0,0c0.1,0,0.2,0.1,0.2,0.2v0c0,0.1-0.2,0.8-0.2,0.9
			c0,0,0,0,0,0c0,0,0.5-0.6,0.6-0.7c0.1-0.1,0.1-0.2,0.2-0.2c0,0,0,0,0.1,0c0.1,0,0.1,0.2,0.1,0.4C21.1,11.7,21.1,11.7,21.1,11.7"/>
		<path fill="#3E1151" d="M23.7,10.2c0,2.2,0,4.4,0,6.6c0,2.2,0,7.8,0,10.1c0,1.2-0.9,2.1-2.1,2.1c-3.7,0-7.5,0-11.2,0
			c-1.2,0-2.1-0.9-2.1-2.1c0-4.4,0-12.3,0-16.7c0-1.2,0.9-2.1,2.1-2.1c3.7,0,7.5,0,11.2,0C22.8,8.1,23.7,9,23.7,10.2 M20.6,7L20.6,7
			l-9.2,0v0h-1v0c-0.2,0-0.4,0-0.5,0.1c-1.5,0.3-2.6,1.5-2.6,3.1c0,4.4,0,12.3,0,16.7c0,0.1,0,0.3,0,0.4c0.2,1.5,1.5,2.7,3.1,2.7
			c3.8,0,7.5,0,11.3,0c0.2,0,0.4,0,0.6-0.1c1.5-0.3,2.5-1.5,2.5-3.1c0-3.5,0-10.5,0-14.1c0-0.9,0-1.8,0-2.7c0-1.1-0.6-2-1.5-2.6
			c-0.5-0.3-1-0.4-1.5-0.4V7H20.6z"/>
		<path fill="#3E1151" d="M13.8,16.7h-3.4c-0.3,0-0.5-0.2-0.5-0.5c0-0.3,0.2-0.5,0.5-0.5h3.4c0.3,0,0.5,0.2,0.5,0.5
			C14.3,16.5,14.1,16.7,13.8,16.7"/>
		<path fill="#3E1151" d="M13.8,18.8h-3.4c-0.3,0-0.5-0.2-0.5-0.5s0.2-0.5,0.5-0.5h3.4c0.3,0,0.5,0.2,0.5,0.5S14.1,18.8,13.8,18.8"
			/>
		<path fill="#3E1151" d="M13.8,20.9h-3.4c-0.3,0-0.5-0.2-0.5-0.5s0.2-0.5,0.5-0.5h3.4c0.3,0,0.5,0.2,0.5,0.5S14.1,20.9,13.8,20.9"
			/>
		<path fill="#3E1151" d="M13.8,23.1h-3.4c-0.3,0-0.5-0.2-0.5-0.5s0.2-0.5,0.5-0.5h3.4c0.3,0,0.5,0.2,0.5,0.5S14.1,23.1,13.8,23.1"
			/>
		<path fill="#3E1151" d="M21.4,25.2H10.5c-0.3,0-0.5-0.2-0.5-0.5c0-0.3,0.2-0.5,0.5-0.5h10.9c0.3,0,0.5,0.2,0.5,0.5
			C21.9,25,21.6,25.2,21.4,25.2"/>
		<path fill="#3E1151" d="M21.4,27.3H10.5c-0.3,0-0.5-0.2-0.5-0.5c0-0.3,0.2-0.5,0.5-0.5h10.9c0.3,0,0.5,0.2,0.5,0.5
			C21.9,27.1,21.6,27.3,21.4,27.3"/>
		<path fill="#3E1151" d="M21.4,22.8H16c-0.2,0-0.3-0.2-0.3-0.3V16c0-0.2,0.2-0.3,0.3-0.3h5.3c0.2,0,0.3,0.2,0.3,0.3v6.5
			C21.7,22.7,21.6,22.8,21.4,22.8"/>
	</g>
</g>
<g id="zoom-in">
</g>
<g id="tiles">
</g>
<g id="chevron-down">
</g>
<g id="chevron-up">
</g>
<g id="chevron-right">
</g>
<g id="chevron-left_copy">
</g>
<g id="heart">
</g>
<g id="stethoscope">
</g>
<g id="users">
</g>
<g id="nurse">
</g>
<g id="book">
</g>
<g id="arrows">
</g>
<g id="play">
</g>
<g id="mesh">
</g>
<g id="user">
</g>
<g id="bar-chart">
</g>
<g id="clone">
</g>
<g id="list-ul">
</g>
<g id="bottle-o">
</g>
<g id="bottle">
</g>
</svg>
