<?xml version="1.0" encoding="utf-8"?>
<!-- Generator: Adobe Illustrator 18.1.1, SVG Export Plug-In . SVG Version: 6.00 Build 0)  -->
<svg version="1.1" xmlns="http://www.w3.org/2000/svg" xmlns:xlink="http://www.w3.org/1999/xlink" x="0px" y="0px"
	 viewBox="0 0 32 32" enable-background="new 0 0 32 32" xml:space="preserve">
<g id="clipboard">
</g>
<g id="zoom-in">
</g>
<g id="tiles">
</g>
<g id="chevron-down">
</g>
<g id="chevron-up">
</g>
<g id="chevron-right">
</g>
<g id="chevron-left_copy">
</g>
<g id="heart">
</g>
<g id="stethoscope">
</g>
<g id="users">
</g>
<g id="nurse">
</g>
<g id="book">
</g>
<g id="arrows">
</g>
<g id="play">
</g>
<g id="mesh">
</g>
<g id="user">
</g>
<g id="bar-chart">
</g>
<g id="clone">
	<path fill="#3E1151" d="M10.9,10.5h13.8V8.2c0-1.5-1.2-2.8-2.8-2.8H3.1c-1.5,0-2.8,1.2-2.8,2.8v10.6c0,1.5,1.2,2.8,2.8,2.8h4.2
		v-7.4C7.2,12.1,8.9,10.5,10.9,10.5z"/>
	<g>
		<path fill="#3E1151" d="M29.8,12.3h-5.1H10.9c-1,0-1.8,0.8-1.8,1.8v7.4v3.2c0,1,0.8,1.8,1.8,1.8h18.9c1,0,1.8-0.8,1.8-1.8V14.2
			C31.7,13.1,30.9,12.3,29.8,12.3z"/>
	</g>
</g>
<g id="list-ul">
</g>
<g id="bottle-o">
</g>
<g id="bottle">
</g>
</svg>
