<?xml version="1.0" encoding="utf-8"?>
<!-- Generator: Adobe Illustrator 18.1.1, SVG Export Plug-In . SVG Version: 6.00 Build 0)  -->
<svg version="1.1" xmlns="http://www.w3.org/2000/svg" xmlns:xlink="http://www.w3.org/1999/xlink" x="0px" y="0px"
	 viewBox="0 0 32 32" enable-background="new 0 0 32 32" xml:space="preserve">
<g id="clipboard">
</g>
<g id="zoom-in">
</g>
<g id="tiles">
</g>
<g id="chevron-down">
</g>
<g id="chevron-up">
</g>
<g id="chevron-right">
</g>
<g id="chevron-left_copy">
</g>
<g id="heart">
	<path fill="#3E1151" d="M10.3,26.5c-1.1-0.9-2-1.9-2.8-3c0,0.1,0,0.2,0,0.3c-0.1,0.7-0.1,1.4-0.2,2c-0.1,0.5,0,0.6,0.4,0.8
		C8.1,26.9,8.7,27,9.4,27C9.7,26.9,10,26.8,10.3,26.5 M25.4,17.8c-0.1-0.5-0.2-0.9-0.4-1.3c-0.4-1.1-0.8-2.1-1.5-3
		c-0.3-0.3-0.7-0.7-1-1c-0.1-0.1-0.2-0.2-0.4-0.2c-0.2,0-0.4,0-0.6,0c-0.1,0-0.2,0.1-0.2,0.2c0,0.1-0.1,0.2,0,0.3
		c0.1,0.4,0.1,0.9,0.2,1.3c0.3,0.8,0.7,1.6,1.3,2.2C23.5,17.1,24.4,17.4,25.4,17.8 M19.9,3.7c-0.2-0.1-0.3-0.1-0.5-0.2
		c-0.1,0-0.2,0-0.2,0.1c-0.2,0.5-0.4,1.1-0.6,1.6c-0.2,0.4-0.5,0.6-0.9,0.5c-0.4-0.1-0.8-0.2-1.1-0.2c-0.3-0.1-0.6-0.3-0.6-0.6
		c-0.1-0.5-0.1-1.1-0.1-1.6c0-0.1-0.1-0.2-0.1-0.2c-0.2,0-0.4,0-0.6,0c-0.1,0-0.2,0.1-0.2,0.2c-0.1,0.3-0.1,0.5-0.2,0.8
		c-0.5,1.9-1.3,3.6-2.4,5.2c0,0.1-0.1,0.2-0.1,0.3c0.1,0.6,0.2,1.1,0.3,1.7c0.2,1.1,0.7,2.1,1.2,3.1c0.3-0.1,0.5-0.4,0.7-0.6
		c1-1.2,1.7-2.6,2.2-4.1c0.2-0.7,0.7-1.3,1.5-1.4C18.3,8.1,18.7,8,19.1,8c1.1,0,2.3,0,3.4,0.1c0.1,0,0.2,0,0.2-0.1
		c0.3-0.8,0.6-1.5,0.9-2.2c0.1-0.3,0.1-0.3-0.2-0.5c-0.1,0-0.1-0.1-0.2-0.1C23.2,5,23.1,5,23,5.2c-0.3,0.5-0.6,1-0.9,1.4
		c-0.2,0.3-0.5,0.5-0.9,0.3c-0.4-0.1-0.8-0.3-1.3-0.5c-0.4-0.1-0.5-0.5-0.5-0.9C19.6,5,19.8,4.4,19.9,3.7 M5.9,15.2
		c0,0.4,0,0.8,0.1,1.2c0.2,1.5,0.7,3,1.4,4.4c0.4,0.8,1,1.2,1.9,1.4c1.1,0.2,2.1-0.1,3-0.6c0.7-0.4,1.1-0.9,1.2-1.7
		c0.1-0.6,0.1-1.2,0-1.7c-0.2-1.2-0.7-2.4-1.3-3.5c-0.4-0.9-0.9-1.8-1.1-2.8c-0.5-2.2-0.7-4.3-0.9-6.5c0-0.4-0.2-0.6-0.5-0.9
		C8.9,3.9,7.7,4,7.1,4.8C7,4.9,6.9,5.1,6.9,5.2C6.8,5.9,6.7,6.6,6.6,7.3C6.5,8.1,6.4,9,6.3,9.9c-0.1,0.9-0.2,1.7-0.3,2.6
		C6,13.4,6,14.3,5.9,15.2 M9.3,23.6c0.1,0.1,0.1,0.1,0.1,0.1c1.2,1.4,2.6,2.4,4.2,3.2c2,0.9,4,1.6,6.2,1.9c1,0.1,2,0.2,3-0.1
		c1.3-0.3,2.3-1,2.8-2.3c0.3-0.7,0.4-1.5,0.4-2.3c0-0.7,0-1.3-0.1-2c-0.1-0.9-0.2-1.8-0.3-2.7c0-0.1-0.1-0.2-0.2-0.2
		c-0.4-0.1-0.8-0.2-1.1-0.4c-0.9-0.3-1.7-0.7-2.4-1.3c-0.9-0.8-1.4-1.8-1.8-2.8c-0.3-0.7-0.4-1.5-0.3-2.3c0.1-0.8,0.6-1.4,1.4-1.5
		c0.2,0,0.3,0,0.5,0c1.1,0,2.1,0.1,3.2,0.2c0.3,0,0.5-0.1,0.6-0.4c0,0,0-0.1,0-0.1c0.2-0.5,0-0.9-0.5-1c-0.1,0-0.1,0-0.2,0
		c-1.6-0.1-3.2-0.2-4.8-0.3c-0.6,0-1.1,0-1.7,0.1c-0.3,0-0.5,0.2-0.6,0.5c-0.3,1.1-0.8,2.1-1.4,3.1c-0.6,1-1.2,1.9-2.2,2.5
		c0,0,0,0,0,0.1c0,0.1,0.1,0.1,0.1,0.2c0.4,1.1,0.7,2.3,0.7,3.5c0,0.9-0.3,1.7-0.8,2.4c-0.6,0.8-1.5,1.3-2.4,1.6
		C11,23.6,10.2,23.7,9.3,23.6 M11.4,27.4c-0.3,0.3-0.6,0.6-1,0.8c-0.6,0.3-1.2,0.3-1.8,0.2c-0.7-0.1-1.3-0.2-1.9-0.6
		c-0.7-0.5-1.2-1.1-1.1-2c0-0.4,0.1-0.7,0.1-1.1C5.9,24,6,23.2,6.1,22.4c0-0.2,0-0.4,0-0.5c0.1-0.3,0-0.6-0.2-0.9
		c-0.7-1.4-1.1-2.9-1.4-4.5c-0.1-0.8-0.1-1.5,0-2.3c0.1-0.9,0.1-1.8,0.2-2.8C4.8,10.5,4.9,9.7,5,8.9C5.1,8,5.2,7.2,5.3,6.3
		c0.1-0.5,0.1-1.1,0.2-1.6C5.6,4.3,5.9,4,6.1,3.7c1.3-1.4,3.4-1.4,4.8-0.1c0.3,0.2,0.5,0.6,0.6,0.9c0.1,0.2,0.1,0.6,0.1,0.8
		c0.1,0.6,0.1,1.2,0.2,1.8c0.1-0.2,0.2-0.5,0.4-0.7c0.5-1.1,1-2.2,1.2-3.5c0.1-0.7,0.6-1.1,1.3-1.3c0.6-0.1,1.1-0.1,1.7,0.2
		c0.5,0.3,0.8,0.7,0.8,1.3c0,0.3,0,0.6,0,0.9c0,0.1,0.1,0.1,0.1,0.2c0,0,0.1-0.1,0.1-0.1c0.1-0.3,0.3-0.7,0.4-1
		c0.2-0.8,0.9-1.1,1.6-1c0.6,0,1.2,0.3,1.7,0.7c0.3,0.4,0.4,0.8,0.3,1.3c-0.1,0.4-0.2,0.7-0.3,1.1c0,0.1,0,0.2,0.2,0.2
		c0.2-0.3,0.4-0.6,0.6-1c0.3-0.7,1-0.9,1.7-0.7c0.7,0.2,1.2,0.5,1.5,1.2c0.2,0.4,0.2,0.8,0.1,1.1c-0.3,0.7-0.5,1.4-0.8,2.1
		c0,0.1,0,0.1-0.1,0.2c0.3,0,0.6,0.1,0.9,0.1c0.4,0,0.9,0.1,1.2,0.4c0.8,0.6,1.3,1.8,0.4,3.1c-0.5,0.7-1.1,0.9-1.9,0.8
		c-0.1,0-0.1,0-0.2,0c0,0,0,0.1,0,0.1c0.9,1,1.4,2.2,1.8,3.5c0.4,1.3,0.7,2.7,0.9,4.1c0.2,1.4,0.3,2.7,0.3,4.1c0,1.3-0.3,2.6-1,3.7
		c-0.8,1.3-2,2-3.4,2.3c-1.3,0.3-2.7,0.2-4,0c-2.2-0.4-4.3-1.1-6.2-2C12.4,28,11.9,27.7,11.4,27.4"/>
</g>
<g id="stethoscope">
</g>
<g id="users">
</g>
<g id="nurse">
</g>
<g id="book">
</g>
<g id="arrows">
</g>
<g id="play">
</g>
<g id="mesh">
</g>
<g id="user">
</g>
<g id="bar-chart">
</g>
<g id="clone">
</g>
<g id="list-ul">
</g>
<g id="bottle-o">
</g>
<g id="bottle">
</g>
</svg>
