<?xml version="1.0" encoding="utf-8"?>
<!-- Generator: Adobe Illustrator 18.1.1, SVG Export Plug-In . SVG Version: 6.00 Build 0)  -->
<svg version="1.1" xmlns="http://www.w3.org/2000/svg" xmlns:xlink="http://www.w3.org/1999/xlink" x="0px" y="0px"
	 viewBox="0 0 32 32" enable-background="new 0 0 32 32" xml:space="preserve">
<g id="clipboard">
</g>
<g id="zoom-in">
</g>
<g id="tiles">
</g>
<g id="chevron-down">
</g>
<g id="chevron-up">
</g>
<g id="chevron-right">
</g>
<g id="chevron-left_copy">
</g>
<g id="heart">
</g>
<g id="stethoscope">
</g>
<g id="users">
</g>
<g id="nurse">
</g>
<g id="book">
</g>
<g id="arrows">
</g>
<g id="play">
</g>
<g id="mesh">
</g>
<g id="user">
</g>
<g id="bar-chart">
</g>
<g id="clone">
</g>
<g id="list-ul">
	<path fill="#3E1151" d="M31.8,6.2v1.6c0,0.4-0.7,0.7-1.6,0.7H10.8c-0.9,0-1.6-0.3-1.6-0.7V6.2c0-0.4,0.7-0.7,1.6-0.7h19.3
		C31.1,5.6,31.8,5.9,31.8,6.2z"/>
	<path fill="#3E1151" d="M31.8,15.4V17c0,0.4-0.7,0.7-1.6,0.7H10.8c-0.9,0-1.6-0.3-1.6-0.7v-1.6c0-0.4,0.7-0.7,1.6-0.7h19.3
		C31.1,14.7,31.8,15,31.8,15.4z"/>
	<path fill="#3E1151" d="M31.8,24.3v1.6c0,0.4-0.7,0.7-1.6,0.7H10.8c-0.9,0-1.6-0.3-1.6-0.7v-1.6c0-0.4,0.7-0.7,1.6-0.7h19.3
		C31.1,23.6,31.8,23.9,31.8,24.3z"/>
	<circle fill="#3E1151" cx="3.1" cy="7.3" r="2.6"/>
	<circle fill="#3E1151" cx="3.1" cy="16" r="2.6"/>
	<circle fill="#3E1151" cx="3.1" cy="24.7" r="2.6"/>
</g>
<g id="bottle-o">
</g>
<g id="bottle">
</g>
</svg>
