<?xml version="1.0" encoding="utf-8"?>
<!-- Generator: Adobe Illustrator 18.1.1, SVG Export Plug-In . SVG Version: 6.00 Build 0)  -->
<svg version="1.1" xmlns="http://www.w3.org/2000/svg" xmlns:xlink="http://www.w3.org/1999/xlink" x="0px" y="0px"
	 viewBox="0 0 32 32" enable-background="new 0 0 32 32" xml:space="preserve">
<g id="clipboard">
</g>
<g id="transition">
</g>
<g id="zoom-in">
</g>
<g id="tiles">
</g>
<g id="chevron-down">
</g>
<g id="chevron-up">
</g>
<g id="chevron-right">
</g>
<g id="chevron-left_copy">
</g>
<g id="heart">
</g>
<g id="stethoscope">
</g>
<g id="users">
</g>
<g id="nurse">
</g>
<g id="book">
</g>
<g id="arrows">
</g>
<g id="play">
</g>
<g id="mesh">
	<path fill="#3D1B51" d="M31.9,15.9c0,0-0.9-0.5-3.3-1.4c1.6-0.6,2.7-0.9,2.7-0.9c0.1,0,0.1-0.1,0.1-0.2c0-0.1-0.1-0.1-0.1-0.1
		c-0.7-0.1-1.5-0.2-2.3-0.2c-1.3,0-2.6,0.2-3.8,0.4c-2.4-0.5-4.8-0.5-7.4-0.1c-0.5-0.1-1.8-0.4-3.6-0.4c-1.3,0-2.6,0.2-3.8,0.5
		c-0.8-0.2-1.5-0.3-2.1-0.4c-0.4,0-0.9-0.1-1.3-0.1c-1.3,0-2.4,0.2-3.4,0.4c-0.2,0-0.3-0.1-0.4-0.1c-1.7-0.3-2.6-0.3-2.6-0.2
		c-0.1,0-0.1,0.1-0.1,0.2c0,0.1,0.1,0.1,0.2,0.1c0,0,0.8-0.1,2.3,0.2c-1.6,0.4-2.6,1-2.6,1c-0.1,0-0.1,0.1-0.1,0.1
		c0,0.1,0,0.1,0.1,0.1l3.1,1.1c-1.7,0.7-2.9,1.3-2.9,1.3c-0.1,0-0.1,0.1-0.1,0.1c0,0.1,0,0.1,0.1,0.1c0,0,1.2,0.4,2.8,0.8
		c-0.1,0-0.1,0-0.2,0c-1.7,0.3-2.5,0.2-2.5,0.2c-0.1,0-0.2,0.1-0.2,0.1c0,0.1,0.1,0.2,0.1,0.2c0,0,0.1,0,0.3,0
		c0.5,0,1.5-0.1,3.2-0.4c1.2,0.2,2.5,0.4,3.7,0.4c0.7,0,1.6-0.1,2.6-0.3c1.2,0.3,2.4,0.4,3.6,0.4c1.2,0,2.4-0.1,3.7-0.4
		c1.3,0.3,2.6,0.4,3.8,0.4c1.1,0,2.2-0.1,3.3-0.3c1.2,0.3,2.4,0.4,3.6,0.4h0c1.3,0,2.4-0.2,3.3-0.6c0.1,0,0.1-0.1,0.1-0.1
		c0-0.1,0-0.1-0.1-0.1l-2.5-0.8c2-0.7,2.6-1,2.6-1c0,0,0,0,0.1-0.1c0.1,0,0.1,0,0.1-0.1C32,16.1,31.9,16,31.9,15.9z M29,13.4
		c0.6,0,1.2,0,1.7,0.1c-0.5,0.2-1.4,0.5-2.5,0.9c-0.4-0.1-0.9-0.3-1.4-0.5c-0.3-0.1-0.6-0.2-0.9-0.2C26.9,13.5,27.9,13.4,29,13.4z
		 M17.9,13.8l2.7,0.9c-1.6,0.5-2.7,1-2.9,1.1c-0.9-0.4-2.1-0.8-3.3-1.2c1.2-0.4,2.3-0.7,3.4-0.9C17.9,13.8,17.9,13.8,17.9,13.8z
		 M17.3,16c-0.6,0.2-1.9,0.7-3.4,1.2c-1-0.3-2-0.7-3-1.2c0,0,0,0,0,0c0,0,0,0,0,0c1-0.5,2-0.9,3-1.2C15.1,15.2,16.3,15.6,17.3,16z
		 M17.7,16.1c1.3,0.5,2.1,0.9,2.1,0.9c0,0,0.3,0.1,0.7,0.3c-1,0.4-2,0.7-2.9,0.9c-1-0.2-2.1-0.5-3.2-0.9
		C16,16.8,17.3,16.3,17.7,16.1z M19.9,16.7c0,0-0.7-0.3-1.8-0.8c0.5-0.2,1.6-0.7,3-1.1l3.1,1c-0.8,0.3-1.5,0.6-2.2,0.9
		c-0.3,0.1-0.6,0.3-0.9,0.4C20.3,16.9,19.9,16.7,19.9,16.7z M22,17c0.8-0.3,1.7-0.7,2.6-1l3.6,1.2c-0.5,0.2-1,0.3-1.6,0.5
		c-0.6,0.2-1.3,0.4-1.9,0.5c-1.3-0.3-2.5-0.7-3.3-1C21.6,17.2,21.8,17.1,22,17z M24.6,15.7l-3-1c1-0.3,2.3-0.7,3.6-0.9
		c0.5,0.1,1,0.2,1.5,0.4c0.4,0.1,0.7,0.2,1.1,0.3C26.8,14.9,25.7,15.3,24.6,15.7z M24.4,13.7c-1.2,0.3-2.4,0.6-3.3,0.9l-2.7-0.9
		C20.5,13.3,22.4,13.3,24.4,13.7z M14.1,13.3c1.2,0,2.2,0.1,2.9,0.3c-1,0.2-2.1,0.5-3.1,0.9c-1-0.3-2-0.6-2.9-0.9
		C12,13.4,13.1,13.3,14.1,13.3z M10.3,13.8c1,0.2,2.1,0.5,3.1,0.9c-0.9,0.3-1.7,0.7-2.7,1.1c-0.1,0-0.2,0.1-0.2,0.1
		c-1.1-0.5-2.1-0.9-3-1.2c0.9-0.3,1.8-0.6,2.7-0.8C10.2,13.8,10.3,13.8,10.3,13.8z M10.2,16C9,16.5,8,16.9,7.1,17.2
		c-0.6-0.2-1.1-0.5-1.7-0.8c0,0,0,0,0,0L4,15.9c0.9-0.4,1.9-0.8,3-1.2C8,15.1,9,15.5,10.2,16z M6.8,13.3c0.4,0,0.9,0,1.3,0.1
		c0.5,0,1,0.1,1.5,0.2c-0.9,0.2-1.8,0.5-2.6,0.8c-1.1-0.4-2.1-0.7-2.9-0.9C4.9,13.4,5.9,13.3,6.8,13.3z M0.6,14.7
		c0.5-0.2,1.5-0.6,2.8-1c0.9,0.2,1.9,0.5,3.2,0.9c-1.1,0.4-2.1,0.8-3,1.2L0.6,14.7z M0.8,17.3c0.5-0.2,1.5-0.7,2.8-1.2l1.6,0.6
		c0.5,0.2,1,0.5,1.4,0.7c-1.1,0.4-2,0.6-2.8,0.8C2.5,17.8,1.4,17.5,0.8,17.3z M7.6,18.6c-1,0-2-0.1-3-0.3c0.7-0.2,1.6-0.4,2.5-0.8
		c0.8,0.3,1.7,0.6,2.5,0.8C8.8,18.5,8.1,18.6,7.6,18.6z M7.5,17.4c0.9-0.3,1.9-0.7,3-1.2c0.1,0,0.2,0.1,0.3,0.1
		c0.9,0.4,1.8,0.8,2.7,1.1c-1,0.3-2.2,0.6-3.2,0.9C9.3,18,8.4,17.7,7.5,17.4z M13.9,18.6c-1,0-2-0.1-3-0.3c1-0.2,2-0.6,3-0.9
		c1,0.4,2,0.6,3,0.9C15.8,18.5,14.8,18.6,13.9,18.6z M18.3,18.3c0.8-0.2,1.7-0.5,2.7-0.9c0.7,0.3,1.8,0.6,3,0.9
		C22.1,18.7,20.3,18.6,18.3,18.3z M31.1,18.2c-0.8,0.3-1.7,0.5-2.8,0.5c-1,0-1.9-0.1-2.9-0.3c0.4-0.1,0.9-0.2,1.3-0.4
		c0.7-0.2,1.4-0.4,1.9-0.6L31.1,18.2z M25,15.9c1.2-0.4,2.2-0.8,3.1-1.2c1.9,0.7,2.9,1.1,3.3,1.3c-0.3,0.1-1.1,0.5-2.8,1.1L25,15.9z
		"/>
</g>
<g id="user">
</g>
<g id="bar-chart">
</g>
<g id="clone">
</g>
<g id="list-ul">
</g>
<g id="bottle-o">
</g>
<g id="bottle">
</g>
<g id="rotate">
</g>
</svg>
