<?xml version="1.0" encoding="utf-8"?>
<!-- Generator: Adobe Illustrator 18.1.1, SVG Export Plug-In . SVG Version: 6.00 Build 0)  -->
<svg version="1.1" xmlns="http://www.w3.org/2000/svg" xmlns:xlink="http://www.w3.org/1999/xlink" x="0px" y="0px"
	 viewBox="0 0 32 32" enable-background="new 0 0 32 32" xml:space="preserve">
<g id="clipboard">
</g>
<g id="zoom-in">
</g>
<g id="tiles">
</g>
<g id="chevron-down">
</g>
<g id="chevron-up">
</g>
<g id="chevron-right">
</g>
<g id="chevron-left_copy">
</g>
<g id="heart">
</g>
<g id="stethoscope">
</g>
<g id="users">
</g>
<g id="nurse">
	<g>
		<path fill="#3E1151" d="M30.8,6.3c-1.7-1.6-3.7-2.7-5.9-3.4c-3.8-1.3-7.7-1.7-11.6-1.3c-2.8,0.3-5.6,1-8.2,2.2
			C3.6,4.5,2.2,5.4,1,6.5c1.2,2.8,2.5,5.6,3.6,8.4c0.4,0.9,0.9,1.3,1.8,1.5c0,0,0,0,0,0c1.7,0.4,3.4,0.2,5.1-0.1
			c2.3-0.5,4.7-1.1,7-1.5c2.1-0.4,4.1-0.3,6.2,0.4c0.7,0.2,1.4,0.5,2.1,0.8c1.4-3.1,2.8-6.3,4.3-9.4C30.9,6.4,30.9,6.4,30.8,6.3z
			 M14.8,12.3c0-0.8,0-1.6,0-2.5c-0.8,0-1.7,0-2.5,0c0-0.9,0-1.7,0-2.6c0.8,0,1.6,0,2.5,0c0-0.9,0-1.7,0-2.5c0.9,0,1.7,0,2.6,0
			c0,0.8,0,1.6,0,2.5c0.8,0,1.6,0,2.5,0c0,0.9,0,1.7,0,2.6c-0.8,0-1.6,0-2.5,0c0,0.8,0,1.6,0,2.5C16.6,12.3,15.7,12.3,14.8,12.3z"/>
		<g>
			<path fill="#3E1151" d="M24.5,16.5c-1.9-0.6-3.9-0.7-5.9-0.4c-1.5,0.3-3,0.6-4.5,0.9c-0.8,0.2-1.7,0.4-2.5,0.5
				c-1,0.2-2,0.4-3.1,0.4c-0.7,0-1.4-0.1-2.2-0.3c0,0,0,0,0,0c-0.3-0.1-0.6-0.1-0.9-0.2c-0.6,2.9-0.1,5.7,1.8,8.4
				c2.6,3.7,6.2,5.2,10.7,4.6c6.5-1,10.2-7.2,9-12.9c-0.2-0.1-0.5-0.2-0.8-0.4C25.4,16.9,24.9,16.6,24.5,16.5z"/>
		</g>
	</g>
</g>
<g id="book">
</g>
<g id="arrows">
</g>
<g id="play">
</g>
<g id="mesh">
</g>
<g id="user">
</g>
<g id="bar-chart">
</g>
<g id="clone">
</g>
<g id="list-ul">
</g>
<g id="bottle-o">
</g>
<g id="bottle">
</g>
</svg>
