<?xml version="1.0" encoding="utf-8"?>
<!-- Generator: Adobe Illustrator 18.1.1, SVG Export Plug-In . SVG Version: 6.00 Build 0)  -->
<svg version="1.1" xmlns="http://www.w3.org/2000/svg" xmlns:xlink="http://www.w3.org/1999/xlink" x="0px" y="0px"
	 viewBox="0 0 32 32" enable-background="new 0 0 32 32" xml:space="preserve">
<g id="clipboard">
</g>
<g id="zoom-in">
</g>
<g id="tiles">
</g>
<g id="chevron-down">
</g>
<g id="chevron-up">
</g>
<g id="chevron-right">
</g>
<g id="chevron-left_copy">
</g>
<g id="heart">
</g>
<g id="stethoscope">
</g>
<g id="users">
</g>
<g id="nurse">
</g>
<g id="book">
</g>
<g id="arrows">
</g>
<g id="play">
</g>
<g id="mesh">
</g>
<g id="user">
</g>
<g id="bar-chart">
</g>
<g id="clone">
</g>
<g id="list-ul">
</g>
<g id="bottle-o">
</g>
<g id="bottle">
</g>
<g id="Layer_22">
	<g>
		<path fill="#3D1B51" d="M31.6,14.1c0-1.2-0.2-2.5-0.6-3.6C27.2,0.3,14.4-3.2,6,3.6C5.6,3.9,5.2,4.2,4.8,4.5L0.4,0l0,13.1l13.1,0.2
			L9,8.8c2.6-2.8,7.2-3.7,10.9-2.2c4,1.7,6.6,5.7,6.3,10.1c-0.1,2.2-0.9,4.1-2.3,5.8c-2,2.5-4.8,3.6-7.9,3.8c0,1.9,0,3.8,0,5.7
			c0.5,0,0.9,0,1.2,0c6.5-0.4,12.4-5.1,14-11.5C31.7,18.5,31.6,16.3,31.6,14.1z"/>
	</g>
</g>
</svg>
