<?xml version="1.0" encoding="utf-8"?>
<!-- Generator: Adobe Illustrator 18.1.1, SVG Export Plug-In . SVG Version: 6.00 Build 0)  -->
<svg version="1.1" xmlns="http://www.w3.org/2000/svg" xmlns:xlink="http://www.w3.org/1999/xlink" x="0px" y="0px"
	 viewBox="0 0 32 32" enable-background="new 0 0 32 32" xml:space="preserve">
<g id="clipboard">
</g>
<g id="zoom-in">
</g>
<g id="tiles">
</g>
<g id="chevron-down">
</g>
<g id="chevron-up">
</g>
<g id="chevron-right">
</g>
<g id="chevron-left_copy">
</g>
<g id="heart">
</g>
<g id="stethoscope">
	<g>
		<path fill="#3E1151" d="M20.6,20.3c3.3-0.1,5.7-0.9,7.5-3.1c0.6-0.7,1.1-1.5,1.4-2.3c0.6-1.9,1.2-3.8,1.7-5.7
			c0.7-2.8-0.8-5.8-3.3-7.2c-0.2-0.1-0.3-0.2-0.4-0.4c-0.6-1-1.7-1.5-2.7-1.2c-1.1,0.3-1.8,1.2-1.8,2.4c0,1.1,0.7,2.1,1.9,2.3
			c0.6,0.1,1.1,0.1,1.6-0.2c0.3-0.2,0.4-0.1,0.6,0.1c1.2,1,1.5,2.4,1.1,3.8c-0.4,1.5-0.8,2.9-1.3,4.4c-0.7,2.3-2.4,3.6-4.7,4
			c-1,0.2-2.1,0.1-3.1-0.2c-1.8-0.5-3.2-1.5-3.8-3.3c-0.6-1.7-1.1-3.5-1.5-5.3c-0.3-1.4,0.1-2.7,1.3-3.6c0.2-0.1,0.3-0.2,0.6,0
			C16.9,5.6,18.4,5.2,19,4c0.7-1.1,0.3-2.6-0.8-3.3c-1.1-0.7-2.6-0.3-3.3,0.8c-0.1,0.2-0.3,0.3-0.5,0.4c-2.5,1.2-4.1,4-3.5,6.8
			c0.4,1.8,0.9,3.6,1.5,5.4c0.9,3,2.9,5,5.9,5.8C19.1,20.2,20.1,20.3,20.6,20.3"/>
		<path fill="#3E1151" d="M2.2,18.5c0-1.8,1.4-3.3,3.2-3.3c1.7,0,3.2,1.4,3.3,3.2c0,1.8-1.4,3.3-3.2,3.4C3.7,21.8,2.3,20.4,2.2,18.5
			 M22.6,21.7h-2.9c0,0.4-0.1,0.8-0.1,1.2c-0.3,3.1-2.9,5.6-6.1,5.7c-3.2,0.1-6-2.2-6.5-5.3c0-0.3,0.1-0.3,0.3-0.4
			c1.9-0.8,3.1-2.6,3.1-4.6c-0.1-2.5-2-4.5-4.5-4.7c-2.5-0.2-4.7,1.6-5.1,4.1C0.4,20,1.6,22,3.6,22.9C3.8,23,3.9,23.2,4,23.4
			c0.4,4,3.6,7.4,7.6,8c5.2,0.9,9.8-2.3,10.8-7.5c0.1-0.6,0.1-1.2,0.2-1.8C22.6,22,22.6,21.9,22.6,21.7"/>
		<path fill="#3E1151" d="M3.6,18.5c0,1,0.9,1.9,1.9,1.8c1,0,1.9-0.9,1.8-1.9c0-1-0.9-1.8-1.9-1.8C4.4,16.7,3.6,17.5,3.6,18.5"/>
	</g>
</g>
<g id="users">
</g>
<g id="nurse">
</g>
<g id="book">
</g>
<g id="arrows">
</g>
<g id="play">
</g>
<g id="mesh">
</g>
<g id="user">
</g>
<g id="bar-chart">
</g>
<g id="clone">
</g>
<g id="list-ul">
</g>
<g id="bottle-o">
</g>
<g id="bottle">
</g>
</svg>
