<?xml version="1.0" encoding="utf-8"?>
<!-- Generator: Adobe Illustrator 18.1.1, SVG Export Plug-In . SVG Version: 6.00 Build 0)  -->
<svg version="1.1" xmlns="http://www.w3.org/2000/svg" xmlns:xlink="http://www.w3.org/1999/xlink" x="0px" y="0px"
	 viewBox="0 0 32 32" enable-background="new 0 0 32 32" xml:space="preserve">
<g id="clipboard">
</g>
<g id="transition">
	<g>
		<g>
			<path fill="#3E1151" d="M14.7,15.7C14,16.2,13.6,17,13.6,18c0,0.9,0.5,1.7,1.4,2.2c0.9,0.5,1.9,0.5,2.7-0.1
				c1.7-1.1,3.4-2.3,5-3.5c0.7-0.5,1-1.2,1-2c0-1-0.4-1.9-1.3-2.4c-1-0.6-1.9-0.5-2.9,0.1C17.9,13.5,16.3,14.6,14.7,15.7z
				 M17.1,19.2c-0.7,0.4-1.6,0.2-2-0.5c-0.4-0.7-0.3-1.6,0.3-2.1c0.6-0.5,1.3-0.9,2-1.4c0.6,0.9,1.2,1.7,1.8,2.6
				C18.4,18.3,17.8,18.8,17.1,19.2z M22.3,13.6c0.5,0.6,0.4,1.5-0.2,2c-0.6,0.5-1.3,1-2,1.5c-0.6-0.9-1.2-1.7-1.8-2.5
				c0.7-0.5,1.3-1,2-1.4C21,12.8,21.9,13,22.3,13.6z M29.3,20.7c-1-0.1-2,0-2.9,0c0,0,0,0,0,0c-0.3,0-0.6,0-0.9,0
				c-0.9,0-1.8,0-2.7,0.1c-1.3,0.2-2.2,1.5-2,2.8c0.1,1.4,1.2,2.4,2.7,2.4c1.9,0,3.9,0,5.8,0c1.5,0,2.7-1.2,2.7-2.7
				C31.9,21.9,30.8,20.7,29.3,20.7z M25.7,24.8c-0.9,0-1.8,0.1-2.7,0c-0.7-0.1-1.2-0.9-1.1-1.5c0.1-0.7,0.6-1.4,1.3-1.4
				c0.8-0.1,1.7,0,2.5,0V24.8z M29.3,24.8c-0.8,0-1.6,0-2.4,0v-3c0.9,0,1.8-0.1,2.7,0c0.7,0.1,1.2,0.8,1.2,1.5
				C30.7,24.1,30.1,24.8,29.3,24.8z M18.4,21.1c-0.4,0-0.6,0.3-0.6,0.7c-0.1,1.8-1.5,3-3.2,3c-2.9,0-5.9,0-8.8,0
				c-2.1,0-3.6-1.9-3.2-4h0.6c1.5,0,2.9,0,4.4,0v-1.1c-1.7,0-3.3,0-5,0v-0.1H1.4c0,0.6,0,1.3,0,1.9C1.4,24,3.2,26,5.7,26
				c3,0,6,0,9,0c2.3,0,4.2-1.9,4.3-4.1C19,21.4,18.8,21.1,18.4,21.1z M1.4,14.6h1.2v0c1.7,0,3.4,0,5,0V14l3.5,3.3L7.6,21v1.9
				l5.4-5.8l-5.4-5v1.4c-1.5,0-3,0-4.5,0H2.5v-2.3h0.6c4.6,0,9.2,0,13.8,0c0.5,0,1.1,0,1.6,0c1,0,1.6-0.6,1.7-1.6c0-0.6,0-1.2,0-1.8
				C20.2,6.6,19.6,6,18.5,6c-2.3,0-4.6,0-6.8,0C8.4,6,5.2,6,1.9,6C0.8,6,0.1,6.7,0.1,7.8c0,0.6,0,1.2,0,1.7c0,0.6,0.3,1.1,0.9,1.4
				c0.3,0.2,0.4,0.3,0.4,0.7C1.4,12.6,1.4,13.6,1.4,14.6z M1.2,9c0-0.4,0-0.8,0-1.2c0-0.4,0.2-0.7,0.7-0.7c5.5,0,11.1,0,16.6,0
				c0.4,0,0.6,0.2,0.7,0.6c0,0.6,0,1.1,0,1.7c0,0.4-0.2,0.6-0.6,0.6c-0.2,0-0.3,0-0.5,0c-2.6,0-5.3,0-7.9,0c-2.6,0-5.3,0-7.9,0
				C1.3,10,1.2,9.9,1.2,9z"/>
		</g>
	</g>
</g>
<g id="zoom-in">
</g>
<g id="tiles">
</g>
<g id="chevron-down">
</g>
<g id="chevron-up">
</g>
<g id="chevron-right">
</g>
<g id="chevron-left_copy">
</g>
<g id="heart">
</g>
<g id="stethoscope">
</g>
<g id="users">
</g>
<g id="nurse">
</g>
<g id="book">
</g>
<g id="arrows">
</g>
<g id="play">
</g>
<g id="mesh">
</g>
<g id="user">
</g>
<g id="bar-chart">
</g>
<g id="clone">
</g>
<g id="list-ul">
</g>
<g id="bottle-o">
</g>
<g id="bottle">
</g>
<g id="rotate">
</g>
</svg>
