<?xml version="1.0" encoding="utf-8"?>
<!-- Generator: Adobe Illustrator 18.1.1, SVG Export Plug-In . SVG Version: 6.00 Build 0)  -->
<svg version="1.1" xmlns="http://www.w3.org/2000/svg" xmlns:xlink="http://www.w3.org/1999/xlink" x="0px" y="0px"
	 viewBox="0 0 32 32" enable-background="new 0 0 32 32" xml:space="preserve">
<g id="clipboard">
</g>
<g id="zoom-in">
</g>
<g id="tiles">
</g>
<g id="chevron-down">
</g>
<g id="chevron-up">
</g>
<g id="chevron-right">
</g>
<g id="chevron-left_copy">
</g>
<g id="heart">
</g>
<g id="stethoscope">
</g>
<g id="users">
	<g>
		<path fill="#3E1151" d="M7.7,18c0.6,0.4,1.2,0.9,1.8,1.3c0.7-1.7,2-3,3.8-3.8c-1.5-1.2-2.2-2.7-2-4.5c0.1-1.3,0.7-2.3,1.7-3.1
			c1.9-1.6,4.7-1.4,6.5,0.3c0.7,0.7,1.1,1.5,1.3,2.4c0.2,0.9,0.1,1.8-0.3,2.7c-0.3,0.9-0.9,1.6-1.7,2.2c1.8,0.8,3,2.1,3.8,3.8
			c0.6-0.4,1.2-0.9,1.8-1.3c-2.1-1.7-1.6-4.2-0.4-5.4c1.4-1.4,3.6-1.4,5,0c1.2,1.2,1.7,3.6-0.4,5.4c0.4,0.3,0.8,0.5,1.2,0.8
			c1.3,1.1,1.9,2.5,1.9,4.2c0,0.5,0,1,0,1.4c0,0.6-0.3,0.8-0.9,0.8c-9.8,0-19.6,0-29.4,0c-0.5,0-0.8-0.2-0.8-0.7c0-1,0-2.1,0.2-3.1
			c0.3-1.6,1.4-2.8,3-3.5c-1.1-0.9-1.7-2-1.5-3.5c0.1-0.9,0.6-1.7,1.4-2.3c1.5-1.1,3.6-0.9,4.8,0.5C9.3,14,9.7,16.2,7.7,18z"/>
	</g>
</g>
<g id="nurse">
</g>
<g id="book">
</g>
<g id="arrows">
</g>
<g id="play">
</g>
<g id="mesh">
</g>
<g id="user">
</g>
<g id="bar-chart">
</g>
<g id="clone">
</g>
<g id="list-ul">
</g>
<g id="bottle-o">
</g>
<g id="bottle">
</g>
</svg>
