<?xml version="1.0" encoding="utf-8"?>
<!-- Generator: Adobe Illustrator 18.1.1, SVG Export Plug-In . SVG Version: 6.00 Build 0)  -->
<svg version="1.1" xmlns="http://www.w3.org/2000/svg" xmlns:xlink="http://www.w3.org/1999/xlink" x="0px" y="0px"
	 viewBox="0 0 32 32" enable-background="new 0 0 32 32" xml:space="preserve">
<g id="clipboard">
</g>
<g id="zoom-in">
</g>
<g id="tiles">
</g>
<g id="chevron-down">
</g>
<g id="chevron-up">
</g>
<g id="chevron-right">
</g>
<g id="chevron-left_copy">
</g>
<g id="heart">
</g>
<g id="stethoscope">
</g>
<g id="users">
</g>
<g id="nurse">
</g>
<g id="book">
</g>
<g id="arrows">
</g>
<g id="play">
</g>
<g id="mesh">
</g>
<g id="user">
	<path fill="#3E1151" d="M16.5,31.5c-4.3,0-7.8-0.8-11.1-2.7c-0.7-0.4-1.3-0.9-2-1.3c-0.1-0.1-0.2-0.2-0.2-0.3c0-1.3-0.1-2.7,0.3-4
		C4.2,20.7,6,19,8.4,18c0.9-0.4,1.9-0.6,2.8-0.9c0.1,0,0.3,0,0.4,0.1c0.9,0.9,2,1.3,3.2,1.5c1.3,0.2,2.6,0.1,3.8-0.3
		c0.7-0.2,1.3-0.6,1.8-1.1c0.1-0.1,0.3-0.2,0.4-0.1c1.9,0.4,3.8,1,5.3,2.3c1.4,1.2,2.3,2.7,2.6,4.6c0.2,1.1,0.1,2.2,0.1,3.2
		c0,0.1-0.1,0.2-0.2,0.3c-2.3,1.7-4.8,2.8-7.5,3.4C19.3,31.4,17.7,31.6,16.5,31.5z"/>
	<path fill="#3E1151" d="M9.9,7c0-0.6-0.1-1.3,0-2c0.2-2.2,1.5-3.7,3.6-4.2c1.9-0.5,3.8-0.5,5.7,0.2c1.9,0.7,2.8,2.2,3,4.1
		c0.1,0.6,0,1.3,0,1.9c0.1,0,0.2,0.1,0.3,0.1C22.8,7.2,23,7.5,23,7.9c0,0.6,0,1.1,0,1.7c0,0.4-0.2,0.7-0.6,0.7
		c-0.2,0-0.3,0.2-0.4,0.3c-0.5,1.2-1.1,2.5-1.6,3.7c-0.5,1-1.1,1.8-2.2,2.2c-1.5,0.5-3,0.5-4.5,0c-1-0.4-1.6-1.1-2-2
		c-0.6-1.2-1.1-2.5-1.7-3.8c-0.1-0.2-0.2-0.4-0.4-0.4C9.2,10.2,9,10,9,9.6C9,9,9,8.4,9,7.8C9,7.4,9.2,7.2,9.9,7z"/>
</g>
<g id="bar-chart">
</g>
<g id="clone">
</g>
<g id="list-ul">
</g>
<g id="bottle-o">
</g>
<g id="bottle">
</g>
</svg>
