<?xml version="1.0" encoding="utf-8"?>
<!-- Generator: Adobe Illustrator 18.1.1, SVG Export Plug-In . SVG Version: 6.00 Build 0)  -->
<svg version="1.1" xmlns="http://www.w3.org/2000/svg" xmlns:xlink="http://www.w3.org/1999/xlink" x="0px" y="0px"
	 viewBox="0 0 32 32" enable-background="new 0 0 32 32" xml:space="preserve">
<g id="clipboard">
</g>
<g id="transition">
</g>
<g id="zoom-in">
</g>
<g id="tiles">
</g>
<g id="chevron-down">
</g>
<g id="chevron-up">
</g>
<g id="chevron-right">
</g>
<g id="chevron-left_copy">
</g>
<g id="heart">
</g>
<g id="stethoscope">
</g>
<g id="users">
</g>
<g id="nurse">
</g>
<g id="book">
</g>
<g id="arrows">
</g>
<g id="play">
</g>
<g id="mesh">
</g>
<g id="user">
</g>
<g id="bar-chart">
</g>
<g id="clone">
</g>
<g id="list-ul">
</g>
<g id="bottle-o">
</g>
<g id="bottle">
</g>
<g id="rotate">
</g>
<g id="winds">
	<g>
		<g>
			<path fill="#3D1B51" d="M30.2,20.5c-0.4-0.4-1-0.8-1.5-1c0-0.1,0-0.1,0-0.2c0-0.6-0.1-1.2-0.3-1.7c-0.7-1.9-2.7-3-4.7-2.6
				c-1.5,0.3-2.5,1.1-3.1,2.5c-0.2,0.4,0.1,0.8,0.4,0.8c0.2,0,0.4-0.1,0.6-0.4c0.5-1.2,1.6-1.9,2.9-1.9c1.3,0,2.4,0.9,2.8,2.1
				c0.2,0.5,0.3,1,0.1,1.5c-0.1,0.5,0,0.7,0.5,0.8c1.4,0.3,2.4,1.6,2.4,3.1c0,1.1-0.5,1.9-1.3,2.5c-0.8,0.5-1.6,0.7-2.5,0.4
				c-0.3-0.1-0.6,0.1-0.7,0.5c0,0.2,0,0.4,0,0.6c-0.3,1.5-1.4,2.4-2.8,2.5c-1.2,0.1-2.5-0.6-3-1.8c-0.1-0.2-0.2-0.5-0.2-0.7
				c-0.1-0.3-0.4-0.4-0.6-0.4c-0.3,0.1-0.4,0.4-0.4,0.6c0.5,2.2,2.6,3.7,4.9,3.3c1.8-0.4,2.9-1.5,3.3-3.3c0-0.1,0.1-0.1,0.2-0.1
				c0.4,0,0.7,0,1.1-0.1c1.9-0.3,3.2-2,3.4-3.8C31.5,22.5,31.1,21.4,30.2,20.5z M25.7,25.6c0.1-0.1,0.3-0.1,0.3-0.2
				c0.2-0.3,0-0.7-0.5-0.7c-2.6,0-5.3,0-7.9,0h-3.8c-1.4,0-2.8,0-4.2,0c-0.3,0-0.5,0.2-0.5,0.4c0,0.3,0.1,0.5,0.5,0.5
				c0.1,0,0.1,0,0.2,0c5.2,0,10.4,0,15.6,0C25.5,25.6,25.6,25.6,25.7,25.6z M7.9,19.2c-0.3,0-0.5,0.3-0.4,0.6
				c0.1,0.3,0.2,0.3,0.5,0.3c2.6,0,5.3,0,7.9,0c2.6,0,5.2,0,7.8,0c0.1,0,0.1,0,0.2,0c0.2,0,0.3-0.1,0.4-0.3c0.2-0.4-0.1-0.7-0.5-0.7
				c-5.2,0-10.5,0-15.7,0C8,19.2,8,19.2,7.9,19.2z M21.5,22.9c0.3,0,0.4-0.2,0.4-0.5c0-0.3-0.1-0.4-0.4-0.5c-0.1,0-0.1,0-0.2,0
				c-2.4,0-4.8,0-7.2,0c-2.4,0-4.8,0-7.2,0c-0.1,0-0.2,0-0.2,0c-0.2,0-0.4,0.3-0.4,0.5c0,0.3,0.2,0.4,0.5,0.4c4.8,0,9.7,0,14.5,0
				C21.4,22.9,21.5,22.9,21.5,22.9z M7.9,17c1.5-0.3,2.5-1.1,3.1-2.5c0.2-0.4-0.1-0.8-0.4-0.8c-0.2,0-0.4,0.1-0.6,0.4
				C9.5,15.3,8.3,16,7.1,16c-1.3,0-2.4-0.9-2.8-2.1c-0.2-0.5-0.3-1-0.1-1.5c0.1-0.5,0-0.7-0.5-0.8C2.2,11.3,1.2,10,1.3,8.5
				c0-1.1,0.5-1.9,1.3-2.5c0.8-0.5,1.6-0.7,2.5-0.4c0.3,0.1,0.6-0.1,0.7-0.5c0-0.2,0-0.4,0-0.6C6.1,3.1,7.2,2.1,8.6,2
				c1.2-0.1,2.5,0.6,3,1.8c0.1,0.2,0.2,0.5,0.2,0.7c0.1,0.3,0.4,0.4,0.6,0.4c0.3-0.1,0.4-0.4,0.4-0.6C12.5,2,10.3,0.5,8.1,1
				C6.3,1.3,5.2,2.5,4.8,4.2c0,0.1-0.1,0.1-0.2,0.1c-0.4,0-0.7,0-1.1,0.1c-1.9,0.3-3.2,2-3.4,3.8c-0.1,1.3,0.3,2.4,1.2,3.4
				c0.4,0.4,1,0.8,1.5,1c0,0.1,0,0.1,0,0.2c0,0.6,0.1,1.2,0.3,1.7C4,16.3,5.9,17.4,7.9,17z M5.9,6.4C5.8,6.5,5.7,6.6,5.6,6.7
				C5.4,7,5.7,7.4,6.1,7.4c2.6,0,5.3,0,7.9,0h3.8c1.4,0,2.8,0,4.2,0c0.3,0,0.5-0.2,0.5-0.4c0-0.3-0.1-0.5-0.5-0.5
				c-0.1,0-0.1,0-0.2,0c-5.2,0-10.4,0-15.6,0C6.1,6.4,6,6.4,5.9,6.4z M23.6,11.8c-2.6,0-5.3,0-7.9,0c-2.6,0-5.2,0-7.8,0
				c-0.1,0-0.1,0-0.2,0c-0.2,0-0.3,0.1-0.4,0.3c-0.2,0.4,0.1,0.7,0.5,0.7c5.2,0,10.5,0,15.7,0c0,0,0.1,0,0.1,0
				c0.3,0,0.5-0.3,0.4-0.6C24,11.9,23.9,11.8,23.6,11.8z M10.1,9.1c-0.3,0-0.4,0.2-0.4,0.5c0,0.3,0.2,0.4,0.4,0.5c0.1,0,0.1,0,0.2,0
				c2.4,0,4.8,0,7.2,0c2.4,0,4.8,0,7.2,0c0.1,0,0.2,0,0.2,0c0.2,0,0.4-0.3,0.4-0.5c0-0.3-0.2-0.4-0.5-0.4c-4.8,0-9.7,0-14.5,0
				C10.2,9.1,10.1,9.1,10.1,9.1z"/>
		</g>
	</g>
</g>
<g id="chevrons">
</g>
</svg>
