<?xml version="1.0" encoding="utf-8"?>
<!-- Generator: Adobe Illustrator 18.1.1, SVG Export Plug-In . SVG Version: 6.00 Build 0)  -->
<svg version="1.1" xmlns="http://www.w3.org/2000/svg" xmlns:xlink="http://www.w3.org/1999/xlink" x="0px" y="0px"
	 viewBox="0 0 32 32" enable-background="new 0 0 32 32" xml:space="preserve">
<g id="clipboard">
</g>
<g id="zoom-in">
	<g>
		<path fill="#3E1151" d="M21.5,22.9c-0.6-0.6-1.1-1.1-1.6-1.6c-3.1,2.4-6.6,3.2-10.4,1.9c-2.6-0.8-4.5-2.4-5.9-4.7
			c-2.8-4.6-1.8-10.6,2.3-14C10.2,1,16.2,1.1,20.2,4.8c4,3.6,5,10.2,1,15.2c0.3,0.2,0.6,0.5,0.9,0.7c0.3,0.3,0.5,0.6,0.8,0.9
			c0.2-0.3,0.4-0.5,0.6-0.7c0.4-0.4,0.8-0.4,1.3-0.1c0.1,0.1,0.2,0.2,0.3,0.2c1.5,1.5,3,3,4.6,4.6c0.7,0.7,0.7,1.1,0,1.8
			c-0.7,0.7-1.4,1.5-2.2,2.2c-0.5,0.5-1,0.5-1.5,0c-1.6-1.6-3.2-3.2-4.8-4.8c-0.5-0.5-0.5-1,0-1.6C21.2,23.2,21.4,23,21.5,22.9z
			 M3.8,13.2c0.1,4.9,4.5,9.2,10,8.6c4.7-0.5,8.6-4.7,8-10c-0.5-4.7-4.7-8.6-10-8C7,4.4,3.6,8.6,3.8,13.2z M24.1,23
			c-0.4,0.4-0.8,0.7-1.1,1.1c1.2,1.2,2.4,2.4,3.6,3.6c0.4-0.4,0.7-0.7,1.1-1.1C26.5,25.4,25.3,24.2,24.1,23z"/>
		<path fill="#3E1151" d="M11.9,13.8c-0.2,0-0.4,0-0.6,0c-1.5,0-3.1,0-4.6,0c-0.7,0-1.1-0.4-1.1-0.9c0-0.6,0.4-1,1.1-1
			c1.6,0,3.1,0,4.7,0c0.2,0,0.3,0,0.5,0c0-0.2,0-0.3,0-0.5c0-1.5,0-3.1,0-4.6c0-0.7,0.4-1.1,0.9-1.1c0.6,0,0.9,0.4,0.9,1.1
			c0,1.5,0,3.1,0,4.6c0,0.2,0,0.3,0,0.5c0.2,0,0.4,0,0.5,0c1.6,0,3.1,0,4.7,0c0.5,0,0.8,0.2,1,0.6c0.1,0.4,0.1,0.7-0.2,0.9
			c-0.2,0.2-0.6,0.3-0.9,0.3c-1.5,0-3.1,0-4.6,0c-0.2,0-0.3,0-0.5,0c0,0.2,0,0.3,0,0.5c0,1.6,0,3.1,0,4.7c0,0.5-0.2,0.9-0.7,1
			c-0.6,0.2-1.2-0.3-1.2-1c0-1.5,0-3.1,0-4.6C11.9,14.2,11.9,14,11.9,13.8z"/>
	</g>
</g>
<g id="tiles">
</g>
<g id="chevron-down">
</g>
<g id="chevron-up">
</g>
<g id="chevron-right">
</g>
<g id="chevron-left_copy">
</g>
<g id="heart">
</g>
<g id="stethoscope">
</g>
<g id="users">
</g>
<g id="nurse">
</g>
<g id="book">
</g>
<g id="arrows">
</g>
<g id="play">
</g>
<g id="mesh">
</g>
<g id="user">
</g>
<g id="bar-chart">
</g>
<g id="clone">
</g>
<g id="list-ul">
</g>
<g id="bottle-o">
</g>
<g id="bottle">
</g>
</svg>
