<?xml version="1.0" encoding="utf-8"?>
<!-- Generator: Adobe Illustrator 18.1.1, SVG Export Plug-In . SVG Version: 6.00 Build 0)  -->
<svg version="1.1" xmlns="http://www.w3.org/2000/svg" xmlns:xlink="http://www.w3.org/1999/xlink" x="0px" y="0px"
	 viewBox="0 0 335.3 229.8" enable-background="new 0 0 335.3 229.8" xml:space="preserve">
<g id="OUTLINE_Type">
	<g>
		<path d="M7.2,144h6.5v18.7L31.2,144h8.2L24,160.8l15.6,21.5H32l-12.7-16.7l-5.6,6v10.7H7.2V144z"/>
		<path d="M74.9,144v6.1H54.5v10.1h18.3v5.7H54.5v10.2h21.1v6.1H48V144H74.9z"/>
		<path d="M115.1,144h6.5v38.2h-7l-21.7-27.9v27.9h-6.5V144h6.5l22.2,28.6V144z"/>
		<path d="M161.1,163.7h6.5v13.1c-3.6,4-8.8,6-15.5,6c-5.7,0-10.4-1.9-14.2-5.6c-3.8-3.7-5.7-8.4-5.7-14.1s1.9-10.4,5.8-14.2
			s8.6-5.7,14.1-5.7c5.5,0,10.1,1.6,13.7,4.8l-3.4,4.9c-1.5-1.3-3-2.2-4.5-2.7c-1.5-0.5-3.3-0.7-5.3-0.7c-3.9,0-7.1,1.2-9.7,3.7
			c-2.6,2.5-3.9,5.8-3.9,9.8c0,4.1,1.3,7.3,3.8,9.8c2.6,2.5,5.6,3.7,9.3,3.7c3.6,0,6.7-0.8,9.1-2.4V163.7z"/>
		<path d="M209.4,156.5c0,6.3-2.8,10.3-8.3,11.9l10,13.9H203l-9.1-12.9h-8.5v12.9h-6.5V144h14.2c5.8,0,10,1,12.5,3
			C208.2,149,209.4,152.1,209.4,156.5z M200.8,161.9c1.3-1.1,2-2.9,2-5.4c0-2.5-0.7-4.2-2-5.1c-1.3-0.9-3.8-1.4-7.2-1.4h-8.2v13.7h8
			C197.1,163.6,199.5,163,200.8,161.9z"/>
		<path d="M247.8,144v6.1h-20.4v10.1h18.3v5.7h-18.3v10.2h21.1v6.1h-27.5V144H247.8z"/>
		<path d="M266.1,173.6l-3.8,8.7h-6.9l16.9-38.2h6.9l16.9,38.2H289l-3.8-8.7H266.1z M282.6,167.6l-6.9-15.8l-6.9,15.8H282.6z"/>
		<path d="M304,182.3V144h6.5v32.1h17.5v6.1H304z"/>
		<path d="M327.3,144.9c0.9,0.9,1.3,1.9,1.3,3.1c0,1.2-0.4,2.3-1.3,3.1c-0.9,0.9-1.9,1.3-3.1,1.3c-1.2,0-2.3-0.4-3.1-1.3
			s-1.3-1.9-1.3-3.1c0-1.2,0.4-2.3,1.3-3.1c0.9-0.9,1.9-1.3,3.1-1.3C325.4,143.6,326.4,144,327.3,144.9z M326.9,150.8
			c0.8-0.8,1.1-1.7,1.1-2.8s-0.4-2-1.1-2.7c-0.7-0.8-1.7-1.1-2.7-1.1c-1.1,0-2,0.4-2.8,1.1c-0.8,0.8-1.1,1.7-1.1,2.8s0.4,2,1.1,2.7
			c0.7,0.8,1.7,1.1,2.7,1.1C325.3,151.9,326.2,151.5,326.9,150.8z M326.3,147.2c0,0.8-0.3,1.3-1,1.5l1.3,1.7h-1l-1.2-1.6h-1.1v1.6
			h-0.8v-4.8h1.8c0.7,0,1.2,0.1,1.6,0.4S326.3,146.6,326.3,147.2z M325.2,147.8c0.2-0.1,0.3-0.4,0.3-0.7c0-0.3-0.1-0.5-0.3-0.7
			c-0.2-0.1-0.5-0.2-0.9-0.2h-1v1.7h1C324.8,148,325.1,148,325.2,147.8z"/>
	</g>
	<g>
		<g>
			<path fill="#464443" d="M1.4,210.1c0,6.6,1.4,12.6,4,16.9H4c-2.6-4.3-4-10.3-4-16.9c0-6.6,1.4-12.6,4-16.9h1.4
				C2.8,197.5,1.4,203.4,1.4,210.1z"/>
			<path fill="#464443" d="M21.3,204.6l-0.8,1.2c-1.5-1.5-3.4-2.5-5.7-2.5c-4.4,0-7.6,3.6-7.6,8.6c0,5.2,3.2,8.7,7.6,8.7
				c2.5,0,4.6-1,6-2.9l0.9,1.1c-1.6,2.1-4,3.3-6.9,3.3c-5.2,0-9-4.2-9-10.2s3.8-10.2,9-10.2C17.4,201.8,19.7,202.8,21.3,204.6z"/>
			<path fill="#464443" d="M37.4,222.2l0-4c-1.5,2.8-4.2,4.1-7.3,4.1c-3.6,0-6-2.5-6-6c0-3.4,2.6-5.5,6.8-5.5h6.5v-2
				c0-3.4-1.8-5.5-5.5-5.5c-2.3,0-4.2,1-6.2,2.7l-0.7-1.3c2.2-1.8,4.3-2.9,7.1-2.9c4.3,0,6.7,2.7,6.7,6.9l0.1,13.5H37.4z
				 M37.3,215.5v-3.3h-6.4c-3.6,0-5.6,1.4-5.6,4c0,2.7,1.9,4.5,4.9,4.5C33.7,220.7,36.2,219.1,37.3,215.5z"/>
			<path fill="#464443" d="M58.5,209.7v12.4H57v-12.1c0-4.2-2.2-6.6-6-6.6c-4.2,0.1-6.8,3-7.1,7.7v11h-1.5v-20.4h1.5v5.2
				c1.2-3.4,3.8-5.2,7.5-5.2C55.9,201.8,58.5,204.8,58.5,209.7z"/>
			<path fill="#464443" d="M78.4,201.8v18.1c0,6-3.5,9.8-8.9,9.8c-2.9-0.1-5.3-1.2-7.4-3.3l0.8-1.2c1.9,2,4,2.9,6.6,3
				c4.5,0,7.5-3.2,7.5-8.3v-3.8c-1.3,3.2-4,5.2-7.5,5.2c-4.9,0-8.5-4.1-8.5-9.8c0-5.7,3.6-9.8,8.4-9.8c3.5,0,6.2,2,7.5,5.3v-5.2
				H78.4z M77,211.6c0-4.8-3.1-8.4-7.3-8.4s-7.3,3.5-7.3,8.4c0,4.8,3,8.3,7.3,8.3C73.9,219.9,77,216.4,77,211.6z"/>
			<path fill="#464443" d="M91.2,201.8v1.7c-4,0-6.5,3-6.8,7.7v11h-1.5v-20.4h1.5v5.1C85.5,203.6,87.9,201.8,91.2,201.8z"/>
			<path fill="#464443" d="M108.4,212.4h-16c0.2,5,3.3,8.3,7.6,8.3c2.5,0,4.7-1,6.2-2.8l0.8,1.1c-1.7,2-4.2,3.2-7.1,3.2
				c-5.2,0-8.9-4.2-8.9-10.2s3.8-10.2,8.9-10.2C105.3,201.8,108.5,206.1,108.4,212.4z M107.1,211c-0.3-4.6-3-7.7-7.2-7.7
				c-4.1,0-7.1,3.1-7.5,7.7H107.1z"/>
			<path fill="#464443" d="M113.2,222.2h-1.5v-29h1.5V222.2z"/>
			<path fill="#464443" d="M134.6,212c0,6-3.8,10.2-9,10.2c-5.2,0-9-4.2-9-10.2c0-5.9,3.8-10.2,9-10.2
				C130.8,201.8,134.6,206,134.6,212z M117.9,212c0,5.1,3.2,8.7,7.6,8.7c4.4,0,7.6-3.6,7.6-8.7s-3.2-8.7-7.6-8.7
				C121.1,203.3,117.9,206.9,117.9,212z"/>
			<path fill="#464443" d="M146,201.8v1.7c-4,0-6.5,3-6.8,7.7v11h-1.5v-20.4h1.5v5.1C140.3,203.6,142.7,201.8,146,201.8z"/>
			<path fill="#464443" d="M147.3,193.2c2.6,4.3,4,10.3,4,16.9c0,6.6-1.4,12.6-4,16.9h-1.4c2.6-4.3,4-10.3,4-16.9
				c0-6.6-1.4-12.6-4-16.9H147.3z"/>
			<path fill="#464443" d="M167.1,199.5v2.8h5.7v1.4h-5.7v18.4h-1.4v-18.4h-2.3v-1.4h2.3v-2.7c0-3.9,2.5-6.6,5.4-6.5
				c1.3,0,2.7,0.5,3.7,1.4l-0.7,1.3c-0.9-0.7-2-1.2-3-1.2C168.8,194.7,167.1,196.7,167.1,199.5z"/>
			<path fill="#464443" d="M190.4,212c0,6-3.8,10.2-9,10.2c-5.2,0-9-4.2-9-10.2c0-5.9,3.8-10.2,9-10.2
				C186.6,201.8,190.4,206,190.4,212z M173.8,212c0,5.1,3.2,8.7,7.6,8.7c4.4,0,7.6-3.6,7.6-8.7s-3.2-8.7-7.6-8.7
				C177,203.3,173.8,206.9,173.8,212z"/>
			<path fill="#464443" d="M201.1,201.8v1.7c-4,0-6.5,3-6.8,7.7v11h-1.5v-20.4h1.5v5.1C195.5,203.6,197.9,201.8,201.1,201.8z"/>
			<path fill="#464443" d="M215.3,195.9c0,0.8-0.6,1.4-1.2,1.4c-0.7,0-1.2-0.6-1.2-1.4c0-0.8,0.6-1.4,1.2-1.4
				C214.8,194.5,215.3,195.2,215.3,195.9z M214.8,222.2h-1.4v-20.4h1.4V222.2z"/>
			<path fill="#464443" d="M235.8,209.7v12.4h-1.5v-12.1c0-4.2-2.2-6.6-6-6.6c-4.2,0.1-6.8,3-7.1,7.7v11h-1.5v-20.4h1.5v5.2
				c1.2-3.4,3.8-5.2,7.5-5.2C233.1,201.8,235.8,204.8,235.8,209.7z"/>
			<path fill="#464443" d="M241.1,223.2c0,4.4-1.8,6.6-4.5,6.6c-1.3,0-2.6-0.5-3.7-1.4l0.6-1.4c0.8,0.8,1.9,1.2,3,1.2
				c2,0,3.1-1.6,3.1-4.8v-21.5h1.4V223.2z M241.7,195.9c0,0.8-0.6,1.4-1.3,1.4c-0.7,0-1.3-0.6-1.3-1.4c0-0.8,0.6-1.4,1.3-1.4
				C241.1,194.5,241.7,195.2,241.7,195.9z"/>
			<path fill="#464443" d="M261.8,212.4h-16c0.2,5,3.3,8.3,7.6,8.3c2.5,0,4.7-1,6.2-2.8l0.8,1.1c-1.7,2-4.2,3.2-7.1,3.2
				c-5.2,0-8.9-4.2-8.9-10.2s3.8-10.2,8.9-10.2C258.6,201.8,261.9,206.1,261.8,212.4z M260.4,211c-0.3-4.6-3-7.7-7.2-7.7
				c-4.1,0-7.1,3.1-7.5,7.7H260.4z"/>
			<path fill="#464443" d="M278.6,204.6l-0.8,1.2c-1.5-1.5-3.4-2.5-5.7-2.5c-4.4,0-7.6,3.6-7.6,8.6c0,5.2,3.2,8.7,7.6,8.7
				c2.5,0,4.6-1,6-2.9l0.9,1.1c-1.6,2.1-4,3.3-6.9,3.3c-5.2,0-9-4.2-9-10.2s3.8-10.2,9-10.2C274.7,201.8,277,202.8,278.6,204.6z"/>
			<path fill="#464443" d="M291.5,220.8c-1.2,0.9-2.5,1.4-3.8,1.4c-2.6,0-4.2-1.8-4.2-5.7v-12.8h-2.7v-1.4h2.7v-5h1.4v5h6.2v1.4
				h-6.2v12.6c0,2.9,1,4.3,2.9,4.3c1.1,0,2.1-0.4,3.1-1.2L291.5,220.8z"/>
			<path fill="#464443" d="M296.1,195.9c0,0.8-0.6,1.4-1.2,1.4s-1.2-0.6-1.2-1.4c0-0.8,0.6-1.4,1.2-1.4S296.1,195.2,296.1,195.9z
				 M295.5,222.2h-1.4v-20.4h1.4V222.2z"/>
			<path fill="#464443" d="M316.8,212c0,6-3.8,10.2-9,10.2c-5.2,0-9-4.2-9-10.2c0-5.9,3.8-10.2,9-10.2
				C313,201.8,316.8,206,316.8,212z M300.1,212c0,5.1,3.2,8.7,7.6,8.7c4.4,0,7.6-3.6,7.6-8.7s-3.2-8.7-7.6-8.7
				C303.3,203.3,300.1,206.9,300.1,212z"/>
			<path fill="#464443" d="M335.3,209.7v12.4h-1.5v-12.1c0-4.2-2.2-6.6-6-6.6c-4.2,0.1-6.8,3-7.1,7.7v11h-1.5v-20.4h1.5v5.2
				c1.2-3.4,3.8-5.2,7.5-5.2C332.6,201.8,335.3,204.8,335.3,209.7z"/>
		</g>
	</g>
</g>
<g id="White_Holding">
	<g>
		<path fill="#FFFFFF" d="M167.6,21.5c-0.7,0-1.4,0-2.1,0V92c0.7,0,1.4,0,2.1,0c31.4,0,58.9,16.5,74.4,41.2h76.8
			C298.9,68.5,238.8,21.5,167.6,21.5z"/>
		<path fill="#FFFFFF" d="M166.8,21.5c0.7,0,1.4,0,2.1,0V92c-0.7,0-1.4,0-2.1,0c-31.4,0-58.9,16.5-74.4,41.2H15.5
			C35.4,68.5,95.6,21.5,166.8,21.5z"/>
	</g>
	<g>
		<path fill="#FFFFFF" d="M167.6,21.5c-0.7,0-1.4,0-2.1,0V92c0.7,0,1.4,0,2.1,0c31.4,0,58.9,16.5,74.4,41.2h76.8
			C298.9,68.5,238.8,21.5,167.6,21.5z"/>
		<path fill="#FFFFFF" d="M166.8,21.5c0.7,0,1.4,0,2.1,0V92c-0.7,0-1.4,0-2.1,0c-31.4,0-58.9,16.5-74.4,41.2H15.5
			C35.4,68.5,95.6,21.5,166.8,21.5z"/>
	</g>
</g>
<g id="Mark">
	<g>
		<linearGradient id="SVGID_1_" gradientUnits="userSpaceOnUse" x1="128.8408" y1="77.3373" x2="280.2567" y2="77.3373">
			<stop  offset="0.3249" style="stop-color:#DDEDD2;stop-opacity:0.1"/>
			<stop  offset="1" style="stop-color:#6FBF4A"/>
		</linearGradient>
		<path fill="url(#SVGID_1_)" d="M167.6,21.5c-0.7,0-1.4,0-2.1,0V92c0.7,0,1.4,0,2.1,0c31.4,0,58.9,16.5,74.4,41.2h76.8
			C298.9,68.5,238.8,21.5,167.6,21.5z"/>
		<linearGradient id="SVGID_2_" gradientUnits="userSpaceOnUse" x1="210.1741" y1="77.3373" x2="50.5071" y2="77.3373">
			<stop  offset="0.3998" style="stop-color:#FFF0CB;stop-opacity:0.1"/>
			<stop  offset="1" style="stop-color:#FFCE02"/>
		</linearGradient>
		<path fill="url(#SVGID_2_)" d="M166.8,21.5c0.7,0,1.4,0,2.1,0V92c-0.7,0-1.4,0-2.1,0c-31.4,0-58.9,16.5-74.4,41.2H15.5
			C35.4,68.5,95.6,21.5,166.8,21.5z"/>
	</g>
	<polyline fill="#593174" points="166.3,1.8 130.3,133.5 166.3,133.5 166.8,133.5 202.8,133.5 166.8,1.8 166.8,0 166.6,0.9 	"/>
	<polygon fill="#3D1951" points="166.8,0.1 166.8,133.5 202.8,133.5 	"/>
	<linearGradient id="SVGID_3_" gradientUnits="userSpaceOnUse" x1="166.5908" y1="133.5" x2="166.5908" y2="73.5">
		<stop  offset="0" style="stop-color:#FFFFFF"/>
		<stop  offset="1" style="stop-color:#3D1951"/>
	</linearGradient>
	<polygon opacity="0.3" fill="url(#SVGID_3_)" points="193.8,100 166.8,73.5 139,102 130.3,133.5 166.3,133.5 166.8,133.5 
		202.8,133.5 	"/>
	<linearGradient id="SVGID_4_" gradientUnits="userSpaceOnUse" x1="166.6012" y1="133.5" x2="166.6012" y2="97">
		<stop  offset="0" style="stop-color:#FFFFFF"/>
		<stop  offset="1" style="stop-color:#3D1951"/>
	</linearGradient>
	<polygon opacity="0.4" fill="url(#SVGID_4_)" points="202.8,133.4 166.9,97 130.4,133.5 166.3,133.5 166.8,133.5 202.8,133.5 	"/>
	<polygon fill="#4A2561" points="202.5,133.4 166.9,114.9 130.4,133.5 166.3,133.5 166.8,133.5 202.8,133.5 	"/>
	<polygon fill="#3D1951" points="202.8,133.5 202.3,133.2 166.9,114.9 166.8,133.5 	"/>
</g>
</svg>
