<?xml version="1.0" encoding="utf-8"?>
<!-- Generator: Adobe Illustrator 18.1.1, SVG Export Plug-In . SVG Version: 6.00 Build 0)  -->
<svg version="1.1" id="Layer_1" xmlns="http://www.w3.org/2000/svg" xmlns:xlink="http://www.w3.org/1999/xlink" x="0px" y="0px"
	 viewBox="0 448.4 160 191.5" enable-background="new 0 448.4 160 191.5" xml:space="preserve">
<path fill="#FFF467" d="M35.4,479.6l-9.5-13.4c-0.9,0.7-1.9,1.4-2.9,2.2l10,13C33.8,480.8,34.6,480.1,35.4,479.6z"/>
<path fill="#FFF467" d="M45.6,473.4l-7.4-14.7c-1.1,0.6-2.1,1.1-3.2,1.7l7.9,14.4C43.8,474.3,44.7,473.8,45.6,473.4z"/>
<path fill="#FFF467" d="M56.5,468.8l-5.2-15.6c-1.1,0.4-2.3,0.8-3.4,1.2l5.7,15.4C54.6,469.4,55.6,469.1,56.5,468.8z"/>
<path fill="#FFF467" d="M68,465.9l-2.7-16.2c-1.2,0.2-2.3,0.4-3.5,0.7l3.3,16.1C66.1,466.3,67,466.1,68,465.9z"/>
<path fill="#FFF467" d="M79.8,464.8l-0.3-16.4c-1.2,0-2.4,0.1-3.6,0.1l0.9,16.4C77.8,464.9,78.8,464.9,79.8,464.8z"/>
<path fill="#FFF467" d="M93.7,449.1c-1.2-0.2-2.4-0.3-3.6-0.4l-1.5,16.4c1,0.1,2,0.2,2.9,0.3L93.7,449.1z"/>
<path fill="#FFF467" d="M107.7,452.1c-1.2-0.3-2.3-0.7-3.4-0.9l-3.9,16c0.9,0.2,1.9,0.5,2.9,0.8L107.7,452.1z"/>
<path fill="#FFF467" d="M121.1,457.1c-1.1-0.5-2.2-1-3.3-1.4l-6.3,15.2c0.9,0.4,1.8,0.8,2.7,1.2L121.1,457.1z"/>
<path fill="#FFF467" d="M133.6,464.1c-1-0.7-2-1.3-3.1-1.9l-8.4,14.1c0.8,0.5,1.7,1.1,2.5,1.6L133.6,464.1z"/>
<path fill="#FFF467" d="M134,485.1l10.9-12.2c-0.9-0.8-1.8-1.6-2.7-2.3l-10.5,12.7C132.5,483.8,133.3,484.5,134,485.1z"/>
<path fill="#FFF467" d="M144.7,591.4l13.2,9.8c0.7-0.9,1.4-1.9,2.1-2.9l-13.5-9.3C145.8,589.8,145.3,590.7,144.7,591.4z"/>
<path fill="#FFF467" d="M136.9,600.4l11.6,11.7c0.8-0.8,1.7-1.7,2.5-2.6l-11.9-11.2C138.3,599,137.6,599.8,136.9,600.4z"/>
<path fill="#FFF467" d="M127.9,608.2l9.7,13.3c0.9-0.7,1.9-1.4,2.8-2.2l-10.2-12.9C129.5,607,128.7,607.6,127.9,608.2z"/>
<path fill="#FFF467" d="M117.8,614.5l7.6,14.6c1.1-0.6,2.1-1.1,3.1-1.7l-8.1-14.3C119.6,613.5,118.7,614,117.8,614.5z"/>
<path fill="#FFF467" d="M107,619.2l5.3,15.6c1.1-0.4,2.3-0.8,3.4-1.2l-5.9-15.3C108.8,618.5,107.9,618.9,107,619.2z"/>
<path fill="#FFF467" d="M95.5,622.2l2.9,16.2c1.2-0.2,2.3-0.4,3.5-0.7l-3.6-16.1C97.5,621.9,96.5,622,95.5,622.2z"/>
<path fill="#FFF467" d="M83.7,623.5l0.5,16.4c1.2-0.1,2.4-0.1,3.6-0.2l-1.1-16.4C85.7,623.4,84.7,623.4,83.7,623.5z"/>
<path fill="#FFF467" d="M70,639.3c1.2,0.2,2.4,0.3,3.6,0.3l1.3-16.4c-1-0.1-2-0.2-2.9-0.3L70,639.3z"/>
<path fill="#FFF467" d="M55.9,636.5c1.2,0.3,2.3,0.6,3.5,0.9l3.7-16c-0.9-0.2-1.9-0.5-2.9-0.7L55.9,636.5z"/>
<path fill="#FFF467" d="M42.4,631.7c1.1,0.5,2.2,0.9,3.3,1.4l6.1-15.3c-0.9-0.4-1.8-0.8-2.7-1.2L42.4,631.7z"/>
<path fill="#FFF467" d="M29.8,624.9c1,0.7,2.1,1.3,3.1,1.9l8.3-14.2c-0.8-0.5-1.7-1.1-2.6-1.6L29.8,624.9z"/>
<path fill="#FFF467" d="M29.2,603.8l-10.8,12.4c0.9,0.8,1.8,1.6,2.7,2.3l10.3-12.8C30.7,605.2,29.9,604.5,29.2,603.8z"/>
<path fill="#FFF467" d="M20.9,595.3L8.4,605.9c0.8,0.9,1.6,1.8,2.4,2.7l12.1-11.1C22.2,596.8,21.6,596.1,20.9,595.3z"/>
<path fill="#FFF467" d="M13.9,585.7L0,594.3c0.6,1,1.3,2.1,1.9,3l13.6-9.2C15,587.4,14.4,586.5,13.9,585.7z"/>
</svg>
