<?xml version="1.0" encoding="utf-8"?>
<!-- Generator: Adobe Illustrator 18.1.1, SVG Export Plug-In . SVG Version: 6.00 Build 0)  -->
<svg version="1.1" xmlns="http://www.w3.org/2000/svg" xmlns:xlink="http://www.w3.org/1999/xlink" x="0px" y="0px"
	 viewBox="0 0 116 146" enable-background="new 0 0 116 146" xml:space="preserve">
<g id="document">
	<g>
		<g>
			<path fill="#FFFFFF" d="M111.5,45.8c-1.8,0.2-2.8,1.5-2.8,3.7c0,11.4,0,22.8,0,34.2c0,17.9-0.1,35.9-0.1,53.8
				c0,0.4,0,0.8-0.1,1.1H5.3V5.2h14c18.6,0,37.2,0,55.9,0c2.1,0,4.1,0.4,5.7,2c7.5,7.5,15.1,15,22.6,22.4c0.2,0.2,0.4,0.4,0.7,0.8
				H83.1V29c0-3.7,0-7.4,0-11.1c0-2.1-1.3-3.3-3.2-3.3c-1.8,0-3,1.3-3,3.3c0,4.6,0,9.2,0,13.8c0,3,2,4.9,5,4.9c8.6,0,17.2,0,25.8,0
				c0.5,0,1,0,1.4-0.1c3.7-1,4.8-5.4,1.9-8.2C102.5,19.8,94,11.4,85.5,3c-2.7-2.7-5.8-4-9.6-4C52-1,28.2-1,4.3-1
				C3.8-1,3.2-1,2.7-0.8C0.3-0.3-1,1.6-1,4.3c0,45.1,0,90.2,0,135.3c0,0.3-0.1,0.7,0,1c0.4,1,0.8,2.2,1.5,3c1.1,1.4,2.7,1.4,4.4,1.4
				c34.7,0,69.4,0,104.1,0c0.4,0,0.9,0,1.3-0.1c2.7-0.2,4.5-2.1,4.5-4.8c0-6.1,0.1-12.3,0.1-18.4c0-16,0.1-31.9,0.1-47.9
				c0-0.3,0-0.5,0-0.8c0-8.1,0-16.1,0-24.2C115,46.9,113.4,45.6,111.5,45.8z M17.3,67c0.5,0.1,0.9,0,1.4,0c12.7,0,25.4,0,38.1,0
				c12.7,0,25.3,0,38,0c0.5,0,0.9,0,1.4,0c1.5-0.1,2.7-1.4,2.7-2.9c0.1-2.1-1.2-3.3-3.6-3.3c-25.7,0-51.4,0-77.1,0
				c-0.4,0-0.8,0-1.2,0.1c-1.5,0.3-2.5,1.5-2.4,3.1C14.6,65.5,15.8,66.8,17.3,67z M94.8,76.9c-25.4,0-50.7,0-76.1,0
				c-0.5,0-0.9,0-1.4,0c-1.5,0.1-2.7,1.4-2.7,2.9c-0.1,2,1.2,3.3,3.6,3.3c12.8,0,25.7,0,38.5,0c12.8,0,25.5,0,38.3,0
				c0.5,0,0.9,0,1.4-0.1c1.6-0.3,2.6-1.5,2.5-3.1c0-1.5-1.2-2.7-2.7-2.9C95.8,76.9,95.3,76.9,94.8,76.9z M96.9,92.7
				c-0.6-0.2-1.4-0.2-2-0.2c-25.4,0-50.8,0-76.2,0c-0.4,0-0.9,0-1.3,0c-1.6,0.1-2.7,1.4-2.8,2.9c-0.1,2,1.3,3.2,3.6,3.2
				c12.8,0,25.7,0,38.5,0c12.8,0,25.5,0,38.3,0c0.4,0,0.9,0,1.3-0.1c1.4-0.2,2.4-1.3,2.6-2.6C99.1,94.4,98.3,93.1,96.9,92.7z
				 M94.8,113.6c0.5,0,0.9,0,1.4,0c1.5-0.1,2.7-1.4,2.7-2.9c0.1-2.1-1.2-3.3-3.6-3.3c-25.7,0-51.4,0-77.1,0c-0.4,0-0.8,0-1.2,0.1
				c-1.5,0.3-2.5,1.5-2.4,3.1c0,1.5,1.2,2.8,2.7,2.9c0.5,0.1,0.9,0,1.4,0c12.7,0,25.4,0,38.1,0C69.4,113.6,82.1,113.6,94.8,113.6z
				 M49.1,52c0.2,0,0.4,0,0.7,0c1.3-0.2,2.2-0.9,2.6-2.2c0.6-2.1-0.8-3.9-3.2-3.9c-5.2,0-10.4,0-15.6,0c-5.2,0-10.4,0-15.7,0
				c-2.1,0-3.4,1.4-3.3,3.3c0.1,1.7,1.4,2.8,3.3,2.8C28.3,52,38.7,52,49.1,52z M46,129.2c1.1,0,2.3,0,3.4,0c1.5-0.1,2.5-0.9,2.9-2.3
				c0.3-1.3-0.2-2.7-1.4-3.3c-0.6-0.3-1.4-0.5-2.2-0.5c-6.5,0-13.1,0-19.6,0c-3.7,0-7.4,0-11.1,0c-1.1,0-2,0.2-2.7,1.1
				c-0.8,1-1,2.1-0.5,3.2c0.5,1.2,1.5,1.9,2.9,1.9c5.3,0,10.5,0,15.8,0v0C37.7,129.2,41.9,129.2,46,129.2z"/>
		</g>
	</g>
</g>
<g id="users">
</g>
</svg>
