<?xml version="1.0" encoding="utf-8"?>
<!-- Generator: Adobe Illustrator 18.1.1, SVG Export Plug-In . SVG Version: 6.00 Build 0)  -->
<svg version="1.1" xmlns="http://www.w3.org/2000/svg" xmlns:xlink="http://www.w3.org/1999/xlink" x="0px" y="0px"
	 viewBox="0 0 164 112" enable-background="new 0 0 164 112" xml:space="preserve">
<g id="document">
</g>
<g id="users">
	<g>
		<g>
			<path fill="#FFFFFF" d="M137.9,94.3c-1.6-3.9-4.9-6.1-8.4-8c-7.9-4.4-16.2-7.9-24.4-11.4c-3.7-1.6-6.9-3.9-9.1-7.3
				c-1.7-2.7-1.5-5.1,0.6-7.4c1.9-2.1,3.3-4.4,4.2-7c0.7-2.3,1.2-4.6,1.9-6.8c0.1-0.4,0.3-0.7,0.5-1c0.8-0.9,1.9-1.6,2.5-2.6
				c2.1-3.5,3.1-7.4,3.2-11.5c0.1-1.3-0.1-2.6-0.5-3.9c-0.4-1.4-1.5-1.6-2.6-0.7c-0.4,0.4-0.9,0.8-1.4,1.2c0-0.5,0-0.9,0-1.3
				c0.2-4.1-0.1-8.1-1.8-11.8C98.9,6.7,93.3,1.2,84.1,0.1c-6.9-0.8-12.8,1.6-17.5,6.5c-5.1,5.4-7.8,11.8-7.2,19.3c0,0.6,0,1.2,0,2
				c-0.5-0.5-0.7-0.8-1-1.1c-1.4-1.4-2.5-1.1-3.1,0.8c-0.1,0.2-0.1,0.5-0.2,0.8c-0.6,3.6,0.2,7,1.3,10.4c0.7,2.2,1.5,4.4,3.3,5.8
				c1.2,0.8,1.5,1.8,1.7,3c0,0.3,0.1,0.6,0.2,0.9c1.1,4.1,2.3,8.1,5.3,11.3c2.7,2.9,2.8,5.8,0.2,8.8c-1.6,1.8-3.5,3.5-5.6,4.7
				c-3,1.7-6.2,2.9-9.3,4.3c-6.9,3.1-13.8,6.1-20.2,10c-2.5,1.5-4.5,3.4-5.8,6c-2.9,5.7-3.8,11.9-4.5,18.3h120.5
				c-0.8-4-1.4-7.9-2.3-11.7C139.6,98.2,138.7,96.3,137.9,94.3z M162.9,99.9c-1-6-4.1-10.5-9.8-13c-5.3-2.3-10.6-4.8-15.9-7.2
				c-2.5-1.1-4.6-2.6-6.3-4.7c-1.8-2.2-1.7-4.1,0.1-6.3c0.9-1.2,1.8-2.4,2.4-3.8c0.8-1.9,1.2-3.9,1.8-5.9c0.1-0.4,0.3-0.7,0.6-1
				c0.5-0.6,1.2-1,1.6-1.7c1.8-3.1,2.7-6.4,2.4-9.9c-0.1-0.8-0.5-1.8-1-2.1c-0.4-0.2-1.4,0.5-2.1,0.9c0-0.6,0-1.5,0-2.3
				c0.1-6.2-2.6-11-7.4-14.7c-4.3-3.3-9.2-3.9-14.3-1.9c-0.3,0.1-0.8,0.7-0.8,0.9c0.8,3.6,0.2,7.1-0.6,10.6
				c-0.9,3.8-2.4,7.5-5.1,10.5c-0.4,0.5-0.8,1.1-1,1.7c-0.7,2-1.2,4.1-2,6.1c-0.4,1.1-0.6,2.1-0.3,3.3c0.9,3.6,1.9,7.1,4.6,9.9
				c0.4,0.4,0.7,0.9,0.8,1.4c0.1,0.7,0.6,1,1.2,1.2c7.7,3.3,15.3,6.6,22.5,11c2.4,1.4,4.6,3.1,6.3,5.3c3.1,4.1,4.6,8.9,5.7,13.8
				c0.3,1.6,0.6,3.1,0.9,4.7h17C163.6,104.3,163.3,102.1,162.9,99.9z M31.7,81.6c6.8-3.4,13.7-6.6,20.5-9.8c0.3-0.2,0.7-0.3,0.9-0.6
				c0.8-1.2,1.6-2.5,2.4-3.7c1.7-2.6,2.5-5.4,3.1-8.4c0.1-0.6,0.3-1.2,0.1-1.8c-0.8-2.5-1.6-5-2.4-7.5c-0.1-0.4-0.3-0.9-0.6-1.2
				c-2.6-2.6-4.1-5.9-5-9.4c-1.1-4-1.9-8-1-12.1c0.1-0.2-0.4-0.7-0.6-0.8c-1.6-0.4-3.3-1-4.9-1.1c-8.8-0.3-16.9,7.7-16.9,16.5
				c0,1.2,0,2.4,0,3.7c-0.4-0.4-0.6-0.6-0.8-0.8c-1-0.9-1.8-0.7-2.2,0.6c-0.1,0.3-0.2,0.6-0.2,0.9c-0.3,3.6,0.6,7,2.3,10.2
				c0.3,0.6,0.9,1.1,1.4,1.6c0.3,0.4,0.7,0.8,0.8,1.2c0.8,3.5,1.8,6.9,4.2,9.7c1.9,2.1,1.9,4.1,0.1,6.3c-1.7,2-3.8,3.5-6.2,4.6
				c-6.1,2.8-12.2,5.7-18.2,8.6C7.1,89,5.7,90,4.7,91.2c-3.6,4.4-4,9.9-4.7,15.3h16.9c0.2-1.2,0.3-2.4,0.7-3.5c1-3.4,1.8-6.8,3-10
				C22.6,87.7,26.7,84.1,31.7,81.6z"/>
		</g>
	</g>
</g>
</svg>
